<svg width="128" height="128" viewBox="0 0 128 128" fill="none" xmlns="http://www.w3.org/2000/svg">
<path d="M112 66.5C112 91.0767 90.5097 111 64 111C37.4903 111 16 91.0767 16 66.5C16 41.9233 37.4903 22 64 22C90.5097 22 112 41.9233 112 66.5Z" fill="#FF9800"/>
<path d="M41 70H87V103H41V70Z" fill="#FDFEFB"/>
<rect x="41" y="69" width="46" height="7" fill="#003262"/>
<line x1="87" y1="86" x2="41" y2="86" stroke="#333333" stroke-width="2"/>
<path d="M41 95H87" stroke="#333333" stroke-width="2"/>
<path d="M62 76H64V103H62V76Z" fill="#333333"/>
<path d="M75 78H77V105H75V78Z" fill="#333333"/>
<path d="M75 78H77V105H75V78Z" fill="#333333"/>
<path d="M49 77H51V104H49V77Z" fill="#333333"/>
<path d="M87 77L41 77" stroke="#333333" stroke-width="2"/>
<path d="M42.3889 76.6207H40.4697H39.5101H38.5505L37.5909 77.0575L35.6717 77.931H34.2323L32.7929 77.4943L28.4747 75.7471L23.6768 74L23.197 74.4368L22.7172 75.3103L23.6768 76.1839V77.0575L22.7172 77.931L20.3182 81.4253L18.399 84.4828L16.9596 87.977L16.4798 90.5977L16 93.6552L17.4394 97.1494L20.3182 100.207L24.6364 102.391H30.3939L33.7525 101.517L36.1515 100.207L38.0707 99.3333V99.7701V100.207L39.9899 101.954L41.9091 103.701L45.7475 107.195L51.5051 109.816L57.7424 111.563L62.0606 112H64.9394L68.7778 111.563L72.6162 110.69L77.4141 108.943L82.2121 106.322L85.0909 104.138L87.4899 101.954L89.4091 99.3333L89.8889 99.7701L91.8081 101.08L94.6869 102.391L98.5253 102.828H101.884L104.283 101.954L106.202 101.08L108.601 99.3333L110.52 96.7126L111 94.092V91.0345L110.52 87.977L109.081 85.3563L107.162 81.4253L105.242 78.8046L103.323 77.0575L103.803 76.6207L104.283 75.7471L104.423 75.4928C104.622 75.1296 104.547 74.6769 104.24 74.398C103.975 74.1565 103.591 74.0963 103.265 74.2449L102.843 74.4368L100.444 75.3103L97.0859 76.6207L94.6869 77.4943L93.7273 78.3678H92.7677L91.8081 77.4943L89.8889 77.0575H87.4899H84.6111L82.6919 77.4943L80.7727 78.3678L79.3333 80.1149L78.3737 81.8621L77.8939 83.6092V84.9195L78.8535 86.2299L78.3737 86.6667V87.977V89.2874L78.8535 90.5977L79.8131 91.908L81.2525 93.6552L82.2121 94.5287L83.6515 95.4023L85.0909 95.8391V100.207H72.1364H67.3384H45.2677H41.9091V95.4023H43.3485L44.7879 94.9655L46.2273 93.6552L47.6667 91.908L49.1061 89.7241L49.5859 87.5402L49.1061 85.7931L49.5859 84.4828V83.1724L48.6263 80.5517L46.7071 78.8046L44.7879 77.4943L42.3889 76.6207Z" fill="#15233D" stroke="#16253C"/>
<path d="M50.7945 103.833L46 103L52.2329 105.917L57.9863 107.583L66.6164 108L73.8082 106.75L81 103H72.8493H67.0959L63.2603 103.417L57.0274 103.833H50.7945Z" fill="#A06638" stroke="#724E28"/>
<line x1="41" y1="68" x2="87" y2="68" stroke="#333333" stroke-width="2"/>
<path d="M26.2414 83.5217L21.8966 86.1304L22.8621 84.8261L23.8276 83.5217L25.7586 81.3478L31.069 78.7391L28.6552 77.8696L26.2414 77L25.7586 77.8696L22.8621 81.3478L20.931 84.8261L19.4828 88.3043V90.4783L19 93.087L20.4483 95.6957L21.4138 96.5652L24.3103 97L26.7241 96.5652L29.1379 95.2609L29.6207 94.3913V93.087L30.5862 92.6522L32.0345 93.087L33.9655 93.9565H36.3793L38.7931 93.087L41.2069 92.6522L43.6207 92.2174L44.5862 90.913V89.6087L42.6552 87.8696L40.2414 87.4348H37.8276L36.3793 87L37.3448 85.6957H39.2759H43.1379L46.5172 88.3043L47 86.5652L45.5517 84.3913L43.1379 83.087L40.7241 82.2174H38.3103L37.8276 81.7826L38.3103 81.3478L39.2759 80.913H41.6897L44.1034 81.3478L47 83.087V81.7826L46.0345 80.4783L44.5862 79.1739L41.6897 78.3043H38.7931L34.931 79.6087L30.1034 81.7826L26.2414 83.5217Z" fill="#A06638" stroke="#724E28"/>
<path d="M83.9322 78.75H85.8983H87.3729H89.339L91.7966 79.625L99.1695 82.6875L102.61 84.4375L105.559 86.1875L105.068 84.875L103.593 83.125L101.136 81.375L98.678 80.0625L96.2203 79.1875L96.7119 78.75L101.136 77L101.627 77.4375L105.068 82.25L107.525 86.625L108.508 89.25L109 92.75L108.508 94.9375L107.034 97.125L105.068 98H102.61L99.1695 96.6875L97.2034 95.375L97.6949 94.5L97.2034 93.625H96.2203L94.2542 94.9375L91.7966 95.375L88.8475 94.0625L86.8814 93.625H84.9153L83.4407 92.75L81.9661 91L82.9492 89.25L84.9153 88.375L87.3729 87.5H89.339L90.322 87.0625L89.339 86.625H87.3729H84.9153L82.9492 87.5L81.4746 88.375L80.9831 89.25L80.4915 88.8125L80 87.5L80.9831 85.75L82.4576 84L85.4068 83.125L87.3729 82.6875L89.339 82.25L87.8644 81.8125H85.4068L83.4407 82.25L81.4746 83.125L80 84.4375V83.5625L80.9831 80.9375L83.9322 78.75Z" fill="#A06638" stroke="#724E2D"/>
<path d="M101.189 70.7187L104.132 74.3242C104.467 74.7349 104.017 75.3164 103.535 75.0944L100.697 73.7861C100.664 73.7708 100.632 73.752 100.603 73.73L98.5769 72.1887C98.4076 72.06 98.1753 72.0524 97.998 72.1699L97.5742 72.4508C97.5251 72.4833 97.4707 72.507 97.4133 72.5205L94.1288 73.2992C94.0824 73.3102 94.0378 73.3278 93.9964 73.3514L89.4086 75.9683C89.3716 75.9893 89.3322 76.0056 89.2911 76.0167L87.5 76.5L87.4706 75.1053V74.108C87.4706 73.9004 87.5988 73.7144 87.7929 73.6406L89.8235 72.8684L93.5882 71.0789L95.9415 69.9604C96.1981 69.8384 96.3016 69.5275 96.1694 69.276L95.9412 68.8421L94.5626 66.6579C94.5406 66.6229 94.5143 66.5909 94.4843 66.5624L92.6471 64.8158L89.8235 62.5789L87.5213 60.7551C87.2604 60.5484 87.2705 60.1493 87.5415 59.956L88.643 59.1707C88.7907 59.0653 88.984 59.0483 89.1479 59.1262L90.7134 59.8703C90.7475 59.8866 90.7796 59.9066 90.8092 59.93L93.5882 62.1316L96.3756 64.7814C96.3996 64.8043 96.4214 64.8295 96.4404 64.8567L98.2634 67.4562C98.2838 67.4853 98.3011 67.5165 98.3149 67.5493L99.1613 69.5611C99.209 69.6743 99.2966 69.766 99.4075 69.8187L101.016 70.5833C101.083 70.6151 101.142 70.6613 101.189 70.7187Z" fill="#15243B" stroke="#15243B"/>
<path d="M36.3333 60.3684L39.6389 58L42 59.4211L41.5278 59.8947L37.75 62.2632L34.9167 65.1053L31.6111 69.3684L32.0833 69.8421L36.3333 71.2632L40.5833 73.6316V76H39.1667L32.5556 72.6842L30.1944 71.7368L29.25 72.2105L26.8889 74.5789L25 73.6316L26.8889 71.2632L29.7222 69.8421L30.1944 67.4737L32.5556 64.1579L36.3333 60.3684Z" fill="#15233D" stroke="#15233D"/>
<path d="M93.0771 29.0088L93.0586 29.0732L92.5742 30.8379L92.5586 30.8945L92.5303 30.9463L91.5615 32.7109L91.5215 32.7842L91.46 32.8398L90.0059 34.1641L88.8428 35.2217L89.6123 36.623L91.0557 38.8135L91.0625 38.8223H91.0615L93 41.9111L93.0078 41.9229L93.0156 41.9355L94.4688 44.583L95.4385 46.3477L95.5 46.46V49.2939H93.5615V51.5303L93.5312 51.6133L92.5615 54.2598L92.542 54.3145L92.5098 54.3633L91.0557 56.5693L89.6025 58.7754L89.5674 58.8271L89.5215 58.8701L87.0977 61.0752L87.0625 61.1084L87.0205 61.1338L84.1133 62.8984L84.0596 62.9307L83.999 62.9492L81.1143 63.8232L76.7725 65.5811L76.7422 65.5938L76.7109 65.6016L73.3184 66.4844L73.2559 66.5H55.6377L55.5391 66.4551L53.6006 65.5723L51.708 64.7109L49.8193 64.2812L49.8027 64.2773L49.7852 64.2725L46.8779 63.3906L46.8652 63.3867L46.8516 63.3818L44.4287 62.499L44.3936 62.4863L44.3604 62.4678L39.5146 59.8213L39.5039 59.8154L39.4941 59.8096L38.041 58.9277L37.9551 58.876L37.8965 58.7959L36.9277 57.4717L36.9082 57.4453L36.8926 57.417L35.9375 55.6787L34.9932 54.3896C34.9628 54.3481 34.9377 54.3023 34.9199 54.2539L34.4385 52.9365L34.4307 52.917L34.4258 52.8975L33.9414 51.1328L33.9229 51.0674V49.2939H32.291L32.1484 49.1641L31.6631 48.7227L31.5 48.5742V46.9014L31.5615 46.7891L32.5186 45.0469L33.9707 41.9639L33.9834 41.9365L34 41.9111L35.9385 38.8223L35.9434 38.8135L35.9492 38.8057L38.3721 35.2754L38.4053 35.2285L38.4482 35.1895L38.8555 34.8174L38.5771 34.6904L38.5059 34.6582L38.4482 34.6055L36.9941 33.2812L36.9736 33.2627L36.9551 33.2422L35.0166 31.0361L34.9209 30.9268L34.8984 30.7832L34.4141 27.6953L34.3975 27.5889L34.4258 27.4854L34.9102 25.7207L34.9346 25.6318L34.9893 25.5576L36.9277 22.9102L36.9863 22.8301L37.0713 22.7783L39.9795 21.0137L40.0693 20.959L40.1738 20.9453L43.5664 20.5039L43.6436 20.4941L43.7207 20.5078L46.1436 20.9492L46.1855 20.957L46.2246 20.9717L48.6484 21.8535L48.7764 21.9004L48.8633 22.0059L50.166 23.5879H51.291L54.5947 22.2988L54.6299 22.2852L54.666 22.2773L58.543 21.3945L58.5732 21.3877L58.6035 21.3848L62.9648 20.9434L62.9902 20.9414H65.4834L65.5283 20.9492L67.9355 21.3877H67.9365L70.8438 21.8291L70.8701 21.833L70.8955 21.8398L74.2871 22.7217L74.3154 22.7295L74.3438 22.7402L77.3262 23.9033L77.6006 23.4062L77.6543 23.3086L77.7441 23.2432L80.167 21.4785L80.2354 21.4287L80.3164 21.4043L83.2236 20.5215L83.2949 20.5H85.8379L85.8818 20.5078L88.3047 20.9492L88.4092 20.9688L88.4971 21.0283L90.4355 22.3516L90.4648 22.3711L90.4902 22.3945L91.9443 23.7188L92.0352 23.8008L92.0771 23.916L93.0469 26.5635L93.0771 26.6465V29.0088Z" fill="#15233D" stroke="#15233D"/>
<path d="M42.2222 35.7473L43.1795 33.989V33.5495H41.7436L40.3077 33.1099L38.3932 31.7912L37.4359 29.5934V26.956L38.3932 25.1978L40.7863 23.4396L43.1795 23H46.0513L47.9658 24.3187L48.9231 25.1978L49.4017 26.5165L49.8803 27.3956L50.359 26.956L51.7949 26.0769L53.7094 25.1978L55.6239 24.7582L57.5385 24.3187H59.9316H61.3675H63.7607L66.6325 24.7582L69.5043 25.1978L71.4188 25.6374L70.9402 25.1978L70.4615 24.3187H70.9402H71.8974L74.7692 25.1978L77.641 26.5165L78.5983 26.956V26.0769L79.0769 25.1978L80.0342 24.3187L81.4701 23.4396L83.8632 23H86.2564L88.1709 23.8791L90.0855 25.6374L90.5641 27.8352V29.5934L89.6068 31.3516L88.1709 32.6703L86.735 33.5495H85.2991V33.989L85.7778 34.8681L86.735 37.5055L89.6068 41.4615L92 44.978V45.8571H91.5214L90.0855 45.4176L90.5641 46.2967V48.0549V51.5714L89.1282 54.6484L88.1709 53.3297L85.7778 56.8462L82.4273 59.044L82.906 56.4066L82.4273 56.8462L78.5983 59.044L72.3761 61.6813L73.3333 60.8022L74.7692 59.044H73.3333L71.8974 60.8022L69.5043 62.1209L67.1111 63H64.2393L62.3248 62.5604L59.9316 61.6813L58.0171 60.3626L57.0598 59.4835L56.5812 58.6044L55.6239 57.7253L54.188 56.8462L55.1453 58.6044L56.5812 59.9231V60.8022L53.2308 60.3626L50.359 59.4835L47.9658 58.1648L45.5726 56.8462L46.0513 58.6044H45.5726L43.1795 57.2857L41.265 55.0879L39.8291 53.3297L38.8718 54.6484L38.3932 54.2088L37.9145 52.011L37.4359 49.3736V47.1758V45.4176L36 45.8571V44.978L37.9145 42.3407L39.8291 39.7033L41.265 37.5055L42.2222 35.7473Z" fill="#A06638" stroke="#15233D"/>
<path d="M53.9091 31.4286L55.2727 31H55.7273H56.1818L57.0909 31.4286L58 31.8571V32.7143L57.0909 33.5714L56.1818 33.1429H55.2727H54.3636L53.9091 33.5714L53.4545 34L53 33.5714V32.7143V32.2857L53.9091 31.4286Z" fill="#15233D" stroke="#15233D"/>
<path d="M74.3636 31L73 31.4V31.8L73.4545 32.2L73.9091 32.6H74.3636H75.2727H76.6364L77.5455 33L78 32.6V32.2L77.5455 31.4L76.6364 31H75.2727H74.3636Z" fill="#15233D" stroke="#15233D"/>
<path d="M83.8182 26H85.1818L86.0538 26.436L86.5455 26.4545L87 27.3636V28.7273L86.0909 30.0909L84.7273 31V30.0909L84.2727 29.6364L83.8182 29.1818L83.3636 29.6364L82.4545 30.0909L82 29.6364V29.1818V28.2727L82.4545 27.3636L82.9091 26.4545L83.8182 26Z" fill="#15233D"/>
<path d="M86.0909 26.4545L86.0538 26.436M86.0538 26.436L85.1818 26H83.8182L82.9091 26.4545L82.4545 27.3636L82 28.2727V29.1818V29.6364L82.4545 30.0909L83.3636 29.6364L83.8182 29.1818L84.2727 29.6364L84.7273 30.0909V31L86.0909 30.0909L87 28.7273V27.3636L86.5455 26.4545L86.0538 26.436Z" stroke="#15233D"/>
<path d="M44.5 29.1818L46 30.0909H46.5L47 29.1818V28.7273L46.5 27.8182L45.5 26.9091L44 26H42.5L41.5 26.4545L41 26.9091V28.7273L41.5 29.6364L43.5 31L43 30.5455L43.5 30.0909L44 29.6364L44.5 29.1818Z" fill="#15233D" stroke="#15233D"/>
<path d="M75.1698 36.9167L73.283 36H72.8113L72.3396 36.4583L71.8679 36.9167L71.3962 38.2917L69.5094 37.375L66.6792 36.9167H64.3208L61.4906 37.375L59.1321 38.2917V37.375V36.9167L58.6604 36.4583L58.1887 36H57.2453L56.3019 36.4583L55.3585 37.375L54.4151 38.75L53.4717 40.125L53 41.0417H53.9434H54.8868L55.8302 41.5L56.7736 41.9583L55.3585 43.7917L53.9434 47V49.75L54.4151 52.5L55.8302 54.3333L57.2453 55.7083L58.6604 56.1667H60.0755L60.5472 56.625L61.4906 57.0833L63.8491 58H65.7358H67.6226L69.5094 57.0833L70.4528 56.625H71.3962L72.3396 56.1667L73.7547 55.7083H74.2264H74.6981H75.6415L76.5849 53.4167L77.0566 50.2083V47.4583L76.5849 44.7083L75.6415 43.3333L74.6981 41.9583L75.6415 41.0417H76.5849L78 41.5V41.0417L77.0566 39.2083L76.1132 37.8333L75.1698 36.9167Z" fill="#1A2039" stroke="#15233D"/>
<path d="M60.8605 39.8571L63.3023 39H64.2791H65.7442H67.6977L69.6512 39.4286L71.1163 40.2857V41.1429L71.6047 41.5714L73.0698 42.8571L74.5349 44.1429L75.5116 45.4286L76 47.1429V49.2857L75.5116 51L74.5349 52.7143L73.0698 53.5714L71.6047 54H70.1395L68.186 53.1429L67.6977 52.7143V52.2857L68.186 51.8571V51.4286V51V50.1429L68.6744 49.7143H69.6512L70.6279 49.2857L72.093 48.8571L73.0698 48L74.0465 47.1429V46.2857V45L73.0698 44.1429L72.093 43.7143L71.1163 43.2857L69.6512 42.8571H68.186H66.7209H64.7674H63.7907L62.814 43.2857L61.8372 43.7143L60.8605 44.1429L60.3721 44.5714L59.8837 45V45.8571V46.7143L60.3721 47.1429L60.8605 47.5714L62.3256 48.4286L63.7907 48.8571L65.2558 49.2857L65.7442 49.7143L66.2326 50.1429V51L65.7442 51.8571L64.7674 52.7143L63.3023 53.1429L60.8605 53.5714H58.907L56.9535 52.7143L55.4884 50.5714L55 48L55.4884 46.2857L55.9767 45L57.4419 43.2857L58.907 42L59.8837 40.2857L60.8605 39.8571Z" fill="#D9B27B" stroke="#D8B37C"/>
<path d="M64.3077 54H65.6923L67.5385 55.2L68 56.4L66.6154 57H65.6923H64.3077H63.3846L62 56.4V55.8L62.4615 55.2L63.3846 54.6L64.3077 54Z" fill="#FF3F3C" stroke="#142040"/>
<ellipse cx="57" cy="38.5" rx="1" ry="1.5" fill="#FDFEFB"/>
<ellipse cx="74" cy="38.5" rx="1" ry="1.5" fill="#FDFEFB"/>
<ellipse cx="67.5" cy="46" rx="6.5" ry="3" fill="#1A2039"/>
<path d="M28.4762 73.3636L29.9048 72L31.3333 72.9091L34.6667 74.2727L38 76.0909L36.5714 76.5455L35.5 77.5L33.5 77L31.3333 76.273L29.5 75.5L27.7611 74.7273L28 73.8182L28.4762 73.3636Z" fill="#345580" stroke="#142040"/>
<path d="M36.9077 63.2414L40.8462 61L41.8308 61.4483L45.2769 62.7931L49.7077 64.1379L63 66.8276H58.5692H55.1231H52.1692H49.7077H47.7385H46.2615H42.8154H41.3385L40.5 67V68.5V71.5V74.5L37.8923 72.2069L35.4308 70.8621L31 69.5172L33.4615 66.8276L36.9077 63.2414Z" fill="#345580" stroke="#142040"/>
<path d="M98 73L101 74.4545L95 76.5L93 78L91 76.5L88.5 76.2727L90 75.1818L94.5 74.0909L98 73Z" fill="#345580" stroke="#142040"/>
<path d="M91.7571 65.0345L87.0429 61L83.2714 63.2414L79.5 64.5862L63 66.8276H78.0857H80.4429H83.7429H87.2777L87.3909 67.5V68.5V71.7586L87.5 74L91.7571 71.7586L96 69.9655L94.5857 67.2759L91.7571 65.0345Z" fill="#345580" stroke="#15233D"/>
<path d="M78 66.6667V66.3333M77 66.3333L77.5 66H78H78.5L79 66.3333V66.6667V67H78H77V66.6667V66.3333Z" stroke="#8C8C8C"/>
<path d="M50 66.6667V66.3333M49 66.3333L49.5 66H50H50.5L51 66.3333V66.6667V67H50H49V66.6667V66.3333Z" stroke="#8C8C8C"/>
<path d="M51 19.9375L51.9268 23L53.7805 22.5625L52.8537 20.8125L53.3171 20.375L57.0244 18.625L61.1951 17.75H67.2195L67.6829 20.8125L70 21.25L69.0732 17.3125L68.1463 16.4375L65.3659 16H60.7317L55.6341 17.3125L51.9268 19.0625L51 19.9375Z" fill="#15233D" stroke="#15233D"/>
<path d="M67 20.2222L66.5333 18H65.1333H63.2667H61.4L59.5333 18.4444L57.2 18.8889L54.8667 19.7778L53 20.6667L53.9333 22L54.8667 21.5556L56.7333 21.1111L59.0667 20.6667L62.8 20.2222H65.1333L67 20.6667V20.2222Z" fill="#FF9800" stroke="#FF9800"/>
<path d="M112 66.5C112 91.0767 90.5097 111 64 111C37.4903 111 16 91.0767 16 66.5C16 41.9233 37.4903 22 64 22C90.5097 22 112 41.9233 112 66.5Z" fill="#FF9800"/>
<path d="M41 70H87V103H41V70Z" fill="#FDFEFB"/>
<rect x="41" y="69" width="46" height="8" fill="#003262"/>
<line x1="87" y1="85" x2="41" y2="85" stroke="#333333" stroke-width="2"/>
<path d="M41 93H87" stroke="#333333" stroke-width="2"/>
<path d="M62 76H64V90.5V103H62V76Z" fill="#333333"/>
<path d="M74 78H76V105H74V78Z" fill="#333333"/>
<path d="M51 78H53V105H51V78Z" fill="#333333"/>
<path d="M87 77L41 77" stroke="#333333" stroke-width="2"/>
<path d="M42.3889 76.6207H40.4697H39.5101H38.5505L37.5909 77.0575L35.6717 77.931H34.2323L32.7929 77.4943L28.4747 75.7471L23.6768 74L23.197 74.4368L22.7172 75.3103L23.6768 76.1839V77.0575L22.7172 77.931L20.3182 81.4253L18.399 84.4828L16.9596 87.977L16.4798 90.5977L16 93.6552L17.4394 97.1494L20.3182 100.207L24.6364 102.391H30.3939L33.7525 101.517L36.1515 100.207L38.0707 99.3333V99.7701V100.207L39.9899 101.954L41.9091 103.701L45.7475 107.195L51.5051 109.816L57.7424 111.563L62.0606 112H64.9394L68.7778 111.563L72.6162 110.69L77.4141 108.943L82.2121 106.322L85.0909 104.138L87.4899 101.954L89.4091 99.3333L89.8889 99.7701L91.8081 101.08L94.6869 102.391L98.5253 102.828H101.884L104.283 101.954L106.202 101.08L108.601 99.3333L110.52 96.7126L111 94.092V91.0345L110.52 87.977L109.081 85.3563L107.162 81.4253L105.242 78.8046L103.323 77.0575L103.803 76.6207L104.283 75.7471L104.423 75.4928C104.622 75.1296 104.547 74.6769 104.24 74.398C103.975 74.1565 103.591 74.0963 103.265 74.2449L102.843 74.4368L100.444 75.3103L97.0859 76.6207L94.6869 77.4943L93.7273 78.3678H92.7677L91.8081 77.4943L89.8889 77.0575H87.4899H84.6111L82.6919 77.4943L80.7727 78.3678L79.3333 80.1149L78.3737 81.8621L77.8939 83.6092V84.9195L78.8535 86.2299L78.3737 86.6667V87.977V89.2874L78.8535 90.5977L79.8131 91.908L81.2525 93.6552L82.2121 94.5287L83.6515 95.4023L85.0909 95.8391V100.207H72.1364H67.3384H45.2677H41.9091V95.4023H43.3485L44.7879 94.9655L46.2273 93.6552L47.6667 91.908L49.1061 89.7241L49.5859 87.5402L49.1061 85.7931L49.5859 84.4828V83.1724L48.6263 80.5517L46.7071 78.8046L44.7879 77.4943L42.3889 76.6207Z" fill="#15233D" stroke="#16253C"/>
<path d="M50.7945 103.833L46 103L52.2329 105.917L57.9863 107.583L66.6164 108L73.8082 106.75L81 103H72.8493H67.0959L63.2603 103.417L57.0274 103.833H50.7945Z" fill="#A06638" stroke="#724E28"/>
<line x1="41" y1="68" x2="87" y2="68" stroke="#333333" stroke-width="2"/>
<path d="M26.2414 83.5217L21.8966 86.1304L22.8621 84.8261L23.8276 83.5217L25.7586 81.3478L31.069 78.7391L28.6552 77.8696L26.2414 77L25.7586 77.8696L22.8621 81.3478L20.931 84.8261L19.4828 88.3043V90.4783L19 93.087L20.4483 95.6957L21.4138 96.5652L24.3103 97L26.7241 96.5652L29.1379 95.2609L29.6207 94.3913V93.087L30.5862 92.6522L32.0345 93.087L33.9655 93.9565H36.3793L38.7931 93.087L41.2069 92.6522L43.6207 92.2174L44.5862 90.913V89.6087L42.6552 87.8696L40.2414 87.4348H37.8276L36.3793 87L37.3448 85.6957H39.2759H43.1379L46.5172 88.3043L47 86.5652L45.5517 84.3913L43.1379 83.087L40.7241 82.2174H38.3103L37.8276 81.7826L38.3103 81.3478L39.2759 80.913H41.6897L44.1034 81.3478L47 83.087V81.7826L46.0345 80.4783L44.5862 79.1739L41.6897 78.3043H38.7931L34.931 79.6087L30.1034 81.7826L26.2414 83.5217Z" fill="#A06638" stroke="#724E28"/>
<path d="M83.9322 78.75H85.8983H87.3729H89.339L91.7966 79.625L99.1695 82.6875L102.61 84.4375L105.559 86.1875L105.068 84.875L103.593 83.125L101.136 81.375L98.678 80.0625L96.2203 79.1875L96.7119 78.75L101.136 77L101.627 77.4375L105.068 82.25L107.525 86.625L108.508 89.25L109 92.75L108.508 94.9375L107.034 97.125L105.068 98H102.61L99.1695 96.6875L97.2034 95.375L97.6949 94.5L97.2034 93.625H96.2203L94.2542 94.9375L91.7966 95.375L88.8475 94.0625L86.8814 93.625H84.9153L83.4407 92.75L81.9661 91L82.9492 89.25L84.9153 88.375L87.3729 87.5H89.339L90.322 87.0625L89.339 86.625H87.3729H84.9153L82.9492 87.5L81.4746 88.375L80.9831 89.25L80.4915 88.8125L80 87.5L80.9831 85.75L82.4576 84L85.4068 83.125L87.3729 82.6875L89.339 82.25L87.8644 81.8125H85.4068L83.4407 82.25L81.4746 83.125L80 84.4375V83.5625L80.9831 80.9375L83.9322 78.75Z" fill="#A06638" stroke="#724E2D"/>
<path d="M101.189 70.7187L104.132 74.3242C104.467 74.7349 104.017 75.3164 103.535 75.0944L100.697 73.7861C100.664 73.7708 100.632 73.752 100.603 73.73L98.5769 72.1887C98.4076 72.06 98.1753 72.0524 97.998 72.1699L97.5742 72.4508C97.5251 72.4833 97.4707 72.507 97.4133 72.5205L94.1288 73.2992C94.0824 73.3102 94.0378 73.3278 93.9964 73.3514L89.4086 75.9683C89.3716 75.9893 89.3322 76.0056 89.2911 76.0167L87.5 76.5L87.4706 75.1053V74.108C87.4706 73.9004 87.5988 73.7144 87.7929 73.6406L89.8235 72.8684L93.5882 71.0789L95.9415 69.9604C96.1981 69.8384 96.3016 69.5275 96.1694 69.276L95.9412 68.8421L94.5626 66.6579C94.5406 66.6229 94.5143 66.5909 94.4843 66.5624L92.6471 64.8158L89.8235 62.5789L87.5213 60.7551C87.2604 60.5484 87.2705 60.1493 87.5415 59.956L88.643 59.1707C88.7907 59.0653 88.984 59.0483 89.1479 59.1262L90.7134 59.8703C90.7475 59.8866 90.7796 59.9066 90.8092 59.93L93.5882 62.1316L96.3756 64.7814C96.3996 64.8043 96.4214 64.8295 96.4404 64.8567L98.2634 67.4562C98.2838 67.4853 98.3011 67.5165 98.3149 67.5493L99.1613 69.5611C99.209 69.6743 99.2966 69.766 99.4075 69.8187L101.016 70.5833C101.083 70.6151 101.142 70.6613 101.189 70.7187Z" fill="#15243B" stroke="#15243B"/>
<path d="M36.3333 60.3684L39.6389 58L42 59.4211L41.5278 59.8947L37.75 62.2632L34.9167 65.1053L31.6111 69.3684L32.0833 69.8421L36.3333 71.2632L40.5833 73.6316V76H39.1667L32.5556 72.6842L30.1944 71.7368L29.25 72.2105L26.8889 74.5789L25 73.6316L26.8889 71.2632L29.7222 69.8421L30.1944 67.4737L32.5556 64.1579L36.3333 60.3684Z" fill="#15233D" stroke="#15233D"/>
<path d="M93.0771 29.0088L93.0586 29.0732L92.5742 30.8379L92.5586 30.8945L92.5303 30.9463L91.5615 32.7109L91.5215 32.7842L91.46 32.8398L90.0059 34.1641L88.8428 35.2217L89.6123 36.623L91.0557 38.8135L91.0625 38.8223H91.0615L93 41.9111L93.0078 41.9229L93.0156 41.9355L94.4688 44.583L95.4385 46.3477L95.5 46.46V49.2939H93.5615V51.5303L93.5312 51.6133L92.5615 54.2598L92.542 54.3145L92.5098 54.3633L91.0557 56.5693L89.6025 58.7754L89.5674 58.8271L89.5215 58.8701L87.0977 61.0752L87.0625 61.1084L87.0205 61.1338L84.1133 62.8984L84.0596 62.9307L83.999 62.9492L81.1143 63.8232L76.7725 65.5811L76.7422 65.5938L76.7109 65.6016L73.3184 66.4844L73.2559 66.5H55.6377L55.5391 66.4551L53.6006 65.5723L51.708 64.7109L49.8193 64.2812L49.8027 64.2773L49.7852 64.2725L46.8779 63.3906L46.8652 63.3867L46.8516 63.3818L44.4287 62.499L44.3936 62.4863L44.3604 62.4678L39.5146 59.8213L39.5039 59.8154L39.4941 59.8096L38.041 58.9277L37.9551 58.876L37.8965 58.7959L36.9277 57.4717L36.9082 57.4453L36.8926 57.417L35.9375 55.6787L34.9932 54.3896C34.9628 54.3481 34.9377 54.3023 34.9199 54.2539L34.4385 52.9365L34.4307 52.917L34.4258 52.8975L33.9414 51.1328L33.9229 51.0674V49.2939H32.291L32.1484 49.1641L31.6631 48.7227L31.5 48.5742V46.9014L31.5615 46.7891L32.5186 45.0469L33.9707 41.9639L33.9834 41.9365L34 41.9111L35.9385 38.8223L35.9434 38.8135L35.9492 38.8057L38.3721 35.2754L38.4053 35.2285L38.4482 35.1895L38.8555 34.8174L38.5771 34.6904L38.5059 34.6582L38.4482 34.6055L36.9941 33.2812L36.9736 33.2627L36.9551 33.2422L35.0166 31.0361L34.9209 30.9268L34.8984 30.7832L34.4141 27.6953L34.3975 27.5889L34.4258 27.4854L34.9102 25.7207L34.9346 25.6318L34.9893 25.5576L36.9277 22.9102L36.9863 22.8301L37.0713 22.7783L39.9795 21.0137L40.0693 20.959L40.1738 20.9453L43.5664 20.5039L43.6436 20.4941L43.7207 20.5078L46.1436 20.9492L46.1855 20.957L46.2246 20.9717L48.6484 21.8535L48.7764 21.9004L48.8633 22.0059L50.166 23.5879H51.291L54.5947 22.2988L54.6299 22.2852L54.666 22.2773L58.543 21.3945L58.5732 21.3877L58.6035 21.3848L62.9648 20.9434L62.9902 20.9414H65.4834L65.5283 20.9492L67.9355 21.3877H67.9365L70.8438 21.8291L70.8701 21.833L70.8955 21.8398L74.2871 22.7217L74.3154 22.7295L74.3438 22.7402L77.3262 23.9033L77.6006 23.4062L77.6543 23.3086L77.7441 23.2432L80.167 21.4785L80.2354 21.4287L80.3164 21.4043L83.2236 20.5215L83.2949 20.5H85.8379L85.8818 20.5078L88.3047 20.9492L88.4092 20.9688L88.4971 21.0283L90.4355 22.3516L90.4648 22.3711L90.4902 22.3945L91.9443 23.7188L92.0352 23.8008L92.0771 23.916L93.0469 26.5635L93.0771 26.6465V29.0088Z" fill="#15233D" stroke="#15233D"/>
<path d="M42.2222 35.7473L43.1795 33.989V33.5495H41.7436L40.3077 33.1099L38.3932 31.7912L37.4359 29.5934V26.956L38.3932 25.1978L40.7863 23.4396L43.1795 23H46.0513L47.9658 24.3187L48.9231 25.1978L49.4017 26.5165L49.8803 27.3956L50.359 26.956L51.7949 26.0769L53.7094 25.1978L55.6239 24.7582L57.5385 24.3187H59.9316H61.3675H63.7607L66.6325 24.7582L69.5043 25.1978L71.4188 25.6374L70.9402 25.1978L70.4615 24.3187H70.9402H71.8974L74.7692 25.1978L77.641 26.5165L78.5983 26.956V26.0769L79.0769 25.1978L80.0342 24.3187L81.4701 23.4396L83.8632 23H86.2564L88.1709 23.8791L90.0855 25.6374L90.5641 27.8352V29.5934L89.6068 31.3516L88.1709 32.6703L86.735 33.5495H85.2991V33.989L85.7778 34.8681L86.735 37.5055L89.6068 41.4615L92 44.978V45.8571H91.5214L90.0855 45.4176L90.5641 46.2967V48.0549V51.5714L89.1282 54.6484L88.1709 53.3297L85.7778 56.8462L82.4273 59.044L82.906 56.4066L82.4273 56.8462L78.5983 59.044L72.3761 61.6813L73.3333 60.8022L74.7692 59.044H73.3333L71.8974 60.8022L69.5043 62.1209L67.1111 63H64.2393L62.3248 62.5604L59.9316 61.6813L58.0171 60.3626L57.0598 59.4835L56.5812 58.6044L55.6239 57.7253L54.188 56.8462L55.1453 58.6044L56.5812 59.9231V60.8022L53.2308 60.3626L50.359 59.4835L47.9658 58.1648L45.5726 56.8462L46.0513 58.6044H45.5726L43.1795 57.2857L41.265 55.0879L39.8291 53.3297L38.8718 54.6484L38.3932 54.2088L37.9145 52.011L37.4359 49.3736V47.1758V45.4176L36 45.8571V44.978L37.9145 42.3407L39.8291 39.7033L41.265 37.5055L42.2222 35.7473Z" fill="#A06638" stroke="#15233D"/>
<path d="M53.9091 31.4286L55.2727 31H55.7273H56.1818L57.0909 31.4286L58 31.8571V32.7143L57.0909 33.5714L56.1818 33.1429H55.2727H54.3636L53.9091 33.5714L53.4545 34L53 33.5714V32.7143V32.2857L53.9091 31.4286Z" fill="#15233D" stroke="#15233D"/>
<path d="M74.3636 31L73 31.4V31.8L73.4545 32.2L73.9091 32.6H74.3636H75.2727H76.6364L77.5455 33L78 32.6V32.2L77.5455 31.4L76.6364 31H75.2727H74.3636Z" fill="#15233D" stroke="#15233D"/>
<path d="M83.8182 26H85.1818L86.0538 26.436L86.5455 26.4545L87 27.3636V28.7273L86.0909 30.0909L84.7273 31V30.0909L84.2727 29.6364L83.8182 29.1818L83.3636 29.6364L82.4545 30.0909L82 29.6364V29.1818V28.2727L82.4545 27.3636L82.9091 26.4545L83.8182 26Z" fill="#15233D"/>
<path d="M86.0909 26.4545L86.0538 26.436M86.0538 26.436L85.1818 26H83.8182L82.9091 26.4545L82.4545 27.3636L82 28.2727V29.1818V29.6364L82.4545 30.0909L83.3636 29.6364L83.8182 29.1818L84.2727 29.6364L84.7273 30.0909V31L86.0909 30.0909L87 28.7273V27.3636L86.5455 26.4545L86.0538 26.436Z" stroke="#15233D"/>
<path d="M44.5 29.1818L46 30.0909H46.5L47 29.1818V28.7273L46.5 27.8182L45.5 26.9091L44 26H42.5L41.5 26.4545L41 26.9091V28.7273L41.5 29.6364L43.5 31L43 30.5455L43.5 30.0909L44 29.6364L44.5 29.1818Z" fill="#15233D" stroke="#15233D"/>
<path d="M75.1698 36.9167L73.283 36H72.8113L72.3396 36.4583L71.8679 36.9167L71.3962 38.2917L69.5094 37.375L66.6792 36.9167H64.3208L61.4906 37.375L59.1321 38.2917V37.375V36.9167L58.6604 36.4583L58.1887 36H57.2453L56.3019 36.4583L55.3585 37.375L54.4151 38.75L53.4717 40.125L53 41.0417H53.9434H54.8868L55.8302 41.5L56.7736 41.9583L55.3585 43.7917L53.9434 47V49.75L54.4151 52.5L55.8302 54.3333L57.2453 55.7083L58.6604 56.1667H60.0755L60.5472 56.625L61.4906 57.0833L63.8491 58H65.7358H67.6226L69.5094 57.0833L70.4528 56.625H71.3962L72.3396 56.1667L73.7547 55.7083H74.2264H74.6981H75.6415L76.5849 53.4167L77.0566 50.2083V47.4583L76.5849 44.7083L75.6415 43.3333L74.6981 41.9583L75.6415 41.0417H76.5849L78 41.5V41.0417L77.0566 39.2083L76.1132 37.8333L75.1698 36.9167Z" fill="#1A2039" stroke="#15233D"/>
<path d="M60.8605 39.8571L63.3023 39H64.2791H65.7442H67.6977L69.6512 39.4286L71.1163 40.2857V41.1429L71.6047 41.5714L73.0698 42.8571L74.5349 44.1429L75.5116 45.4286L76 47.1429V49.2857L75.5116 51L74.5349 52.7143L73.0698 53.5714L71.6047 54H70.1395L68.186 53.1429L67.6977 52.7143V52.2857L68.186 51.8571V51.4286V51V50.1429L68.6744 49.7143H69.6512L70.6279 49.2857L72.093 48.8571L73.0698 48L74.0465 47.1429V46.2857V45L73.0698 44.1429L72.093 43.7143L71.1163 43.2857L69.6512 42.8571H68.186H66.7209H64.7674H63.7907L62.814 43.2857L61.8372 43.7143L60.8605 44.1429L60.3721 44.5714L59.8837 45V45.8571V46.7143L60.3721 47.1429L60.8605 47.5714L62.3256 48.4286L63.7907 48.8571L65.2558 49.2857L65.7442 49.7143L66.2326 50.1429V51L65.7442 51.8571L64.7674 52.7143L63.3023 53.1429L60.8605 53.5714H58.907L56.9535 52.7143L55.4884 50.5714L55 48L55.4884 46.2857L55.9767 45L57.4419 43.2857L58.907 42L59.8837 40.2857L60.8605 39.8571Z" fill="#D9B27B" stroke="#D8B37C"/>
<path d="M64.3077 54H65.6923L67.5385 55.2L68 56.4L66.6154 57H65.6923H64.3077H63.3846L62 56.4V55.8L62.4615 55.2L63.3846 54.6L64.3077 54Z" fill="#FF3F3C" stroke="#142040"/>
<ellipse cx="57" cy="38.5" rx="1" ry="1.5" fill="#FDFEFB"/>
<ellipse cx="74" cy="38.5" rx="1" ry="1.5" fill="#FDFEFB"/>
<ellipse cx="67.5" cy="46" rx="6.5" ry="3" fill="#1A2039"/>
<path d="M28.4762 73.3636L29.9048 72L31.3333 72.9091L34.6667 74.2727L38 76.0909L36.5714 76.5455L35.5 77.5L33.5 77L31.3333 76.273L29.5 75.5L27.7611 74.7273L28 73.8182L28.4762 73.3636Z" fill="#345580" stroke="#142040"/>
<path d="M36.9077 63.2414L40.8462 61L41.8308 61.4483L45.2769 62.7931L49.7077 64.1379L63 66.8276H58.5692H55.1231H52.1692H49.7077H47.7385H46.2615H42.8154H41.3385L40.5 67V68.5V71.5V74.5L37.8923 72.2069L35.4308 70.8621L31 69.5172L33.4615 66.8276L36.9077 63.2414Z" fill="#345580" stroke="#142040"/>
<path d="M98 73L101 74.4545L95 76.5L93 78L91 76.5L88.5 76.2727L90 75.1818L94.5 74.0909L98 73Z" fill="#345580" stroke="#142040"/>
<path d="M91.7571 65.0345L87.0429 61L83.2714 63.2414L79.5 64.5862L63 66.8276H78.0857H80.4429H83.7429H87.2777L87.3909 67.5V68.5V71.7586L87.5 74L91.7571 71.7586L96 69.9655L94.5857 67.2759L91.7571 65.0345Z" fill="#345580" stroke="#15233D"/>
<path d="M78 66.6667V66.3333M77 66.3333L77.5 66H78H78.5L79 66.3333V66.6667V67H78H77V66.6667V66.3333Z" stroke="#8C8C8C"/>
<path d="M50 66.6667V66.3333M49 66.3333L49.5 66H50H50.5L51 66.3333V66.6667V67H50H49V66.6667V66.3333Z" stroke="#8C8C8C"/>
<path d="M51 19.9375L51.9268 23L53.7805 22.5625L52.8537 20.8125L53.3171 20.375L57.0244 18.625L61.1951 17.75H67.2195L67.6829 20.8125L70 21.25L69.0732 17.3125L68.1463 16.4375L65.3659 16H60.7317L55.6341 17.3125L51.9268 19.0625L51 19.9375Z" fill="#15233D" stroke="#15233D"/>
<path d="M67 20.2222L66.5333 18H65.1333H63.2667H61.4L59.5333 18.4444L57.2 18.8889L54.8667 19.7778L53 20.6667L53.9333 22L54.8667 21.5556L56.7333 21.1111L59.0667 20.6667L62.8 20.2222H65.1333L67 20.6667V20.2222Z" fill="#FF9800" stroke="#FF9800"/>
</svg>
