<?xml version="1.0" encoding="UTF-8" standalone="no"?>
<!DOCTYPE svg PUBLIC "-//W3C//DTD SVG 1.1//EN" "http://www.w3.org/Graphics/SVG/1.1/DTD/svg11.dtd">
<!-- Created with Vectornator (http://vectornator.io/) -->
<svg height="2048.0pt" stroke-miterlimit="10" style="fill-rule:nonzero;clip-rule:evenodd;stroke-linecap:round;stroke-linejoin:round;" version="1.1" viewBox="0 0 2048 2048" width="2048.0pt" xml:space="preserve" xmlns="http://www.w3.org/2000/svg" xmlns:xlink="http://www.w3.org/1999/xlink">
<defs>
<linearGradient gradientTransform="matrix(41.8643 16.591 -16.591 41.8643 1558.04 752.685)" gradientUnits="userSpaceOnUse" id="LinearGradient" x1="0" x2="1" y1="0" y2="0">
<stop offset="0" stop-color="#f3a95b" stop-opacity="0.960784"/>
<stop offset="1" stop-color="#f6a859"/>
</linearGradient>
<linearGradient gradientTransform="matrix(7.54004 -38.5664 38.5664 7.54004 1167.2 142.176)" gradientUnits="userSpaceOnUse" id="LinearGradient_2" x1="0" x2="1" y1="0" y2="0">
<stop offset="0" stop-color="#f7aa59" stop-opacity="0.921569"/>
<stop offset="1" stop-color="#f5a758"/>
</linearGradient>
<linearGradient gradientTransform="matrix(13.9637 -20.6737 20.6737 13.9637 1526.4 255.497)" gradientUnits="userSpaceOnUse" id="LinearGradient_3" x1="0" x2="1" y1="0" y2="0">
<stop offset="0" stop-color="#f6a857" stop-opacity="0.905882"/>
<stop offset="1" stop-color="#f2a255"/>
</linearGradient>
<linearGradient gradientTransform="matrix(10.1162 -10.4325 10.4325 10.1162 1471.44 210.216)" gradientUnits="userSpaceOnUse" id="LinearGradient_4" x1="0" x2="1" y1="0" y2="0">
<stop offset="0" stop-color="#f7a755" stop-opacity="0.937255"/>
<stop offset="1" stop-color="#f1a152"/>
</linearGradient>
</defs>
<g id="Cal-lines">
<path d="M670.338 1394.4L846.477 1419.62L823.527 1579.9L647.387 1554.68L670.338 1394.4Z" fill="#ffffff" fill-rule="nonzero" opacity="1" stroke="none"/>
<path d="M471.248 1368.34L647.387 1393.57L624.437 1553.85L448.297 1528.63L471.248 1368.34Z" fill="#ffffff" fill-rule="nonzero" opacity="1" stroke="none"/>
<path d="M449.098 1543L624.469 1568.11L599.965 1739.24L424.594 1714.13L449.098 1543Z" fill="#ffffff" fill-rule="nonzero" opacity="1" stroke="none"/>
<path d="M847.54 1598.21L1022.91 1623.32L998.407 1794.45L823.036 1769.34L847.54 1598.21Z" fill="#ffffff" fill-rule="nonzero" opacity="1" stroke="none"/>
<path d="M877.099 1421.71L1052.47 1446.82L1027.97 1617.95L852.595 1592.84L877.099 1421.71Z" fill="#ffffff" fill-rule="nonzero" opacity="1" stroke="none"/>
<path d="M692.356 1215.16L867.728 1240.27L843.224 1411.4L667.852 1386.29L692.356 1215.16Z" fill="#ffffff" fill-rule="nonzero" opacity="1" stroke="none"/>
<path d="M555.354 1016.67C561.371 974.644 600.315 945.456 642.337 951.473L642.337 951.473C684.36 957.49 713.548 996.434 707.53 1038.46L705.343 1053.73C699.326 1095.75 660.383 1124.94 618.36 1118.92L618.36 1118.92C576.338 1112.91 547.15 1073.96 553.167 1031.94L555.354 1016.67Z" fill="#ffffff" fill-rule="nonzero" opacity="1" stroke="none"/>
<path d="M940.186 1091.08C946.203 1049.06 985.146 1019.87 1027.17 1025.88L1027.17 1025.88C1069.19 1031.9 1098.38 1070.85 1092.36 1112.87L1090.18 1128.14C1084.16 1170.16 1045.21 1199.35 1003.19 1193.33L1003.19 1193.33C961.169 1187.32 931.981 1148.37 937.998 1106.35L940.186 1091.08Z" fill="#ffffff" fill-rule="nonzero" opacity="1" stroke="none"/>
<path d="M1095.95 1270.15L1271.32 1295.27L1246.82 1466.39L1071.45 1441.28L1095.95 1270.15Z" fill="#ffffff" fill-rule="nonzero" opacity="1" stroke="none"/>
<path d="M1076.97 1445.19L1252.35 1470.3L1227.84 1641.43L1052.47 1616.32L1076.97 1445.19Z" fill="#ffffff" fill-rule="nonzero" opacity="1" stroke="none"/>
<path d="M670.338 1394.4L846.477 1419.62L823.527 1579.9L647.387 1554.68L670.338 1394.4Z" fill="#ffffff" fill-rule="nonzero" opacity="1" stroke="none"/>
<path d="M886.347 1248.01L1084.1 1272.02L1065.48 1425.4L867.728 1401.39L886.347 1248.01Z" fill="#f3a65b" fill-rule="nonzero" opacity="1" stroke="none"/>
<path d="M220.61 1074.83C224.421 1043.44 252.962 1021.08 284.358 1024.89L328.266 1030.22C359.662 1034.03 382.024 1062.57 378.212 1093.97L376.457 1108.43C372.646 1139.82 344.104 1162.19 312.708 1158.37L268.801 1153.04C237.405 1149.23 215.043 1120.69 218.854 1089.3L220.61 1074.83Z" fill="#f3a65b" fill-rule="nonzero" opacity="1" stroke="none"/>
<path d="M634.238 1577L810.877 1598.44L790.893 1763.06L614.254 1741.62L634.238 1577Z" fill="#f3a65b" fill-rule="nonzero" opacity="1" stroke="none"/>
<path d="M498.916 1199.97L675.556 1221.42L656.936 1374.8L480.297 1353.36L498.916 1199.97Z" fill="#f3a65b" fill-rule="nonzero" opacity="1" stroke="none"/>
<path d="M888.894 85.0209C888.894 53.4946 913.119 27.9375 943.002 27.9375C972.886 27.9375 997.111 53.4946 997.111 85.0209C997.111 116.547 972.886 142.104 943.002 142.104C913.119 142.104 888.894 116.547 888.894 85.0209Z" fill="#f3a65b" fill-rule="nonzero" opacity="1" stroke="#f3a65b" stroke-linecap="butt" stroke-linejoin="round" stroke-width="10"/>
<path d="M931.491 142.104C931.491 123.257 936.201 107.979 942.012 107.979C947.822 107.979 952.533 123.257 952.533 142.104C952.533 160.951 947.822 176.23 942.012 176.23C936.201 176.23 931.491 160.951 931.491 142.104Z" fill="#f3a65b" fill-rule="nonzero" opacity="1" stroke="#f3a65b" stroke-linecap="butt" stroke-linejoin="round" stroke-width="10"/>
<path d="M1033.49 1637.44L1210.13 1658.88L1191.51 1812.26L1014.87 1790.82L1033.49 1637.44Z" fill="#f3a65b" fill-rule="nonzero" opacity="1" stroke="none"/>
<path d="M1287.77 1312.73L1294.41 1262.65L505.568 1158.08L498.93 1208.16L1287.77 1312.73Z" fill="#02234b" fill-rule="nonzero" opacity="1" stroke="none"/>
<path d="M1264.68 1499.03L1271.32 1448.96L482.48 1344.39L475.842 1394.46L1264.68 1499.03Z" fill="#02234b" fill-rule="nonzero" opacity="1" stroke="none"/>
<path d="M1227 1665.56L1233.64 1615.49L444.799 1510.91L438.16 1560.99L1227 1665.56Z" fill="#02234b" fill-rule="nonzero" opacity="1" stroke="none"/>
<path d="M431.219 1704.25L424.594 1754.34L1213.44 1858.91L1220.06 1808.84L431.219 1704.25Z" fill="#02234b" fill-rule="nonzero" opacity="1" stroke="none"/>
<path d="M819.697 190.821C792.791 129.079 821.032 57.2161 882.774 30.3104C944.516 3.40467 1016.38 31.6451 1043.29 93.3872C1070.19 155.129 1041.95 226.993 980.208 253.898C918.466 280.804 846.603 252.564 819.697 190.821Z" fill="#02234b" fill-rule="nonzero" opacity="1" stroke="#02234b" stroke-linecap="butt" stroke-linejoin="round" stroke-width="11.909"/>
</g>
<g id="Untitled">
<path d="M1718.26 1358.79L1806.62 1240.89L1966.56 1360.77L1878.2 1478.67L1718.26 1358.79Z" fill="#f3a65b" fill-rule="nonzero" opacity="1" stroke="none"/>
<path d="M1024 14C466.074 14 14 466.309 14 1024C14 1581.69 466.074 2034 1024 2034C1581.93 2034 2034 1581.69 2034 1024C2034 466.309 1581.93 14 1024 14ZM1024 133.924C1514.92 133.924 1913.1 532.313 1913.1 1024C1913.1 1515.69 1514.92 1914.08 1024 1914.08C533.077 1914.08 134.897 1515.69 134.896 1024C134.896 532.313 533.077 133.924 1024 133.924Z" fill="#02234b" fill-rule="nonzero" opacity="1" stroke="none"/>
<path d="M12 1024C12 465.088 465.088 12 1024 12C1582.91 12 2036 465.088 2036 1024C2036 1582.91 1582.91 2036 1024 2036C465.088 2036 12 1582.91 12 1024Z" fill="none" opacity="1" stroke="#f3a65b" stroke-linecap="butt" stroke-linejoin="round" stroke-width="20"/>
<path d="M1284.85 175.671C1100.57 131.355 930.819 180.112 905.697 284.575C880.576 389.039 1009.6 509.648 1193.88 553.963C1378.15 598.279 1547.91 549.522 1573.03 445.059C1598.15 340.595 1469.13 219.987 1284.85 175.671Z" fill="#61a0a5" fill-rule="nonzero" opacity="1" stroke="#61a0a5" stroke-linecap="butt" stroke-linejoin="round" stroke-width="15.8728"/>
<path d="M563.953 948.027L513.99 940.578L396.641 1727.62L446.604 1735.07L563.953 948.027Z" fill="#02234b" fill-rule="nonzero" opacity="1" stroke="none"/>
<path d="M934.688 12.3125C892.228 12.4443 850.109 32.6528 824 68.7812C820.963 72.983 814.095 85.6058 808.969 96.375C809.201 97.6514 809.221 98.9692 808.906 100.25C808.713 101.036 808.463 101.724 808.125 102.438C807.968 102.772 807.556 103.591 807.406 103.875C807.223 104.747 806.837 106.528 806.812 106.656C806.548 107.897 806.287 108.986 805.938 110.312C805.422 112.269 802.818 121.507 802.594 122.312C800.725 129.042 799.682 133.78 799.094 138.75C798.87 140.623 798.536 142.481 798.25 144.312C798.311 144.342 798.38 144.343 798.438 144.375C802.319 146.397 803.836 151.181 801.812 155.062C801.577 155.515 801.389 156.586 801.344 158.562C801.332 159.057 801.316 159.479 801.312 160.438C801.307 162.312 801.293 163.146 801.219 164.25C801.302 164.248 801.387 164.256 801.469 164.25C801.626 163.588 801.736 162.864 801.906 162.25C802.735 159.277 803.707 156.824 805.094 154.844C806.759 152.463 809.099 150.748 811.75 150.219C811.812 149.098 811.762 148.796 811.844 147.438C811.992 145.006 812.059 143.988 812.125 142.688C812.438 136.505 812.886 131.023 813.75 125.562C815.27 115.954 817.398 109.668 822.094 106.188C823.852 104.884 825.963 104.421 827.969 104.719C829.975 105.017 831.883 106.086 833.188 107.844C835.794 111.359 835.044 116.331 831.531 118.938C831.757 118.77 831.906 118.614 832 118.5C832.001 118.499 831.969 118.547 831.906 118.656C831.668 119.071 831.384 119.744 831.094 120.594C830.46 122.465 829.887 124.993 829.406 128.031C828.651 132.808 828.224 137.835 827.938 143.5C827.868 144.875 827.807 145.919 827.656 148.406C827.233 155.327 827.126 158.406 827.25 162.094C827.286 163.181 827.35 164.235 827.438 165.25C827.557 166.651 828.418 170.884 828.438 170.969C829.178 174.372 829.807 180.764 829.688 182.781C829.661 183.219 829.616 184.803 829.656 185.062C832.636 204.215 830.627 233.939 830.625 233.969C830.425 237.419 830.231 239.15 829.469 241.5C828.62 244.116 827.419 246.735 825.938 249.406C821.797 256.876 755.469 326.094 755.469 326.094C755.469 326.094 755.469 326.094 740.75 344.344C667.78 458.623 628.111 608.384 688.625 735.75C705.911 772.131 726.999 802.709 755.844 831.031C760.608 835.71 770.159 842.933 770.25 849.188C767.056 853.281 743.767 858.042 737.812 859.531C731.015 860.83 723.322 858.216 716.812 856.719C629.533 836.624 545.372 872.828 468 909.594C454.322 916.094 425.593 925.399 416.031 935.875C415.903 941.458 415.639 947.699 415.719 953.219L416.562 954.5C418.811 957.893 420.048 959.116 420.531 963.094C419.612 965.993 419.667 966.782 416.594 968.125C384.771 982.095 353.2 997.42 321.188 1010.78C313.696 1013.91 290.668 1010.37 281.656 1011.62C254.792 1014.18 217.419 1027.07 198.219 1046.72C195.584 1049.42 193.759 1051.82 191.125 1053.69C190.134 1054.88 189.263 1055.74 188.156 1057.19C188.044 1057.33 182.71 1064.5 181.188 1066.41C168.212 1082.69 157.794 1097.62 149.125 1112.75C134.487 1138.3 122.421 1166.4 109.188 1203.75C106.431 1211.53 104.081 1218.44 101.812 1225.19C103.205 1229.77 104.618 1234.74 106.125 1240.34C106.173 1240.52 106.662 1242.43 106.812 1243C113.378 1260.64 120.384 1277.44 127.688 1293.66C128.127 1294.05 128.558 1294.46 128.906 1294.97C136.75 1306.51 145.292 1314.93 165 1331.97C200.16 1362.37 228.155 1381.46 258.906 1393.81C261.046 1394.67 262.657 1395.4 266.531 1397.19C266.717 1397.05 266.698 1397.07 266.906 1396.91C280.16 1402.97 313.981 1407.47 328.281 1403.06C329.998 1402.53 335.892 1399.05 338 1400.75C362.777 1420.55 417.349 1455.36 435.281 1478.94C435.613 1482.05 433.429 1499.57 430.594 1520.03C431.48 1520.18 432.358 1520.41 433.188 1520.84C434.451 1521.52 435.317 1522.4 436.094 1523.38C439.016 1523.59 441.373 1525.25 442.781 1527.56C445.376 1531.83 445.275 1535.76 443.875 1541.22C443.779 1541.59 443.683 1541.94 443.531 1542.5C443.124 1544.01 442.974 1544.54 442.875 1545.09C442.705 1546.05 442.303 1547.55 442.125 1548.47C443.588 1557.09 443.062 1566.04 440.844 1579.22C440.66 1580.31 440.481 1581.24 440.156 1583.12C438.872 1590.55 438.397 1593.71 438 1597.59C437.996 1597.64 437.656 1600.85 437.531 1602.06C434.879 1627.91 433.29 1642.28 431.188 1658.16C430.734 1661.58 428.138 1664.11 424.938 1664.78C424.882 1666.49 424.738 1667.33 424.719 1670.06C424.717 1670.28 424.719 1670.28 424.719 1670.5C424.668 1677.55 424.515 1681.06 423.938 1685.25C423.13 1691.11 421.556 1696.17 418.844 1700.75C418.38 1701.53 417.756 1702.23 417 1702.88C416.977 1706.63 416.945 1710.38 416.938 1714.31C419.928 1716.03 422.944 1717.77 426.156 1719.75C432.112 1723.41 449.368 1734.58 449.094 1734.41C474.506 1750.48 493.87 1765.09 535 1797.94C535.545 1798.37 535.549 1798.38 536.094 1798.81C565.977 1822.68 579.699 1833.29 596.969 1845.47C601.351 1848.56 603.838 1850.2 607.656 1852.88C623.274 1860.34 649.531 1873.48 649.562 1873.5C652.726 1875.1 655.941 1876.41 662.719 1879.03C663.648 1879.39 664.141 1879.57 664.594 1879.75C674.838 1883.71 680.391 1886.18 686.469 1889.84C695.462 1895.26 702.419 1901.94 707.094 1910.69C708.837 1913.95 709.497 1917.39 709.375 1920.75C731.527 1923.61 756.257 1926.93 795.031 1932.31C804.115 1933.57 807.866 1934.06 812.781 1934.75C898.117 1946.54 946.965 1952.53 999.875 1956.97C1028.22 1959.35 1055.06 1960.79 1081.19 1961.59C1081.95 1961.56 1084.39 1961.44 1084.41 1961.44C1092.61 1961.1 1096.11 1960.93 1100.19 1960.62C1118.99 1959.17 1138.14 1957.16 1159.69 1954.5C1189.34 1949.21 1221.02 1941.85 1254.22 1932.38C1276.73 1925.94 1299.47 1918.64 1321.94 1910.81C1325.41 1909.19 1327.4 1908.31 1331.44 1906.41C1362.74 1891.6 1377.79 1884.91 1394.88 1878.28C1394.89 1878.24 1394.89 1878.2 1394.91 1878.16C1395.47 1876.53 1396.2 1875.19 1397 1873.97C1397.84 1872.68 1398.68 1871.71 1399.59 1870.78C1401.96 1868.38 1404.55 1866.61 1407.44 1865.22C1409.1 1864.42 1412.49 1863.19 1412.5 1863.19C1413.44 1862.86 1413.75 1862.77 1413.78 1862.75C1415.25 1862.06 1417.24 1861.05 1418.72 1860.34C1420.29 1859.4 1421.05 1859.02 1423.44 1857.53C1423.58 1857.44 1425.63 1856.17 1426.41 1855.69C1429.28 1853.91 1436.84 1849.07 1436.84 1849.06C1441.59 1846.01 1443.72 1844.63 1446.44 1842.94C1447.76 1842.11 1451.25 1839.9 1451.34 1839.84C1455.25 1837.4 1456.58 1836.64 1459.28 1834.97C1459.27 1834.81 1459.22 1834.66 1459.22 1834.5C1459.22 1833.93 1459.26 1833.44 1459.34 1832.94C1459.48 1832.12 1459.62 1831.62 1460.03 1830.22C1460.16 1829.77 1460.23 1829.59 1460.28 1829.41C1460.31 1829.3 1460.3 1829.26 1460.28 1829.38C1460.34 1829.04 1460.66 1827.19 1460.91 1825.72C1460.9 1825.24 1460.8 1824.96 1460.81 1824.44C1460.54 1823.94 1460.11 1823.47 1459.94 1822.94C1459.86 1822.69 1459.91 1822.32 1459.84 1822.06C1459.66 1822 1459.51 1821.98 1459.19 1821.81C1458.56 1820.95 1458.56 1820.95 1458.56 1820.72C1458.54 1820.55 1458.53 1820.55 1458.53 1820.47C1458.53 1820.2 1458.57 1819.87 1458.59 1819.56C1457.73 1819.85 1456.78 1819.45 1456.44 1818.59C1456 1817.51 1456.01 1816.3 1456.31 1814.75C1456.39 1814.37 1456.47 1814 1456.59 1813.5C1456.6 1813.49 1456.77 1812.83 1456.81 1812.66C1456.88 1812.38 1456.91 1812.18 1456.94 1812C1457.12 1810.97 1457.26 1810.15 1457.56 1808.28C1457.99 1805.68 1458.18 1804.53 1458.47 1803.06C1459.86 1795.86 1461.35 1789.67 1463.03 1784.03C1464.25 1776.43 1465.95 1767.65 1468.47 1755.59C1468.99 1753.09 1471.21 1742.22 1471.72 1739.72C1475.69 1720.08 1477.67 1711.19 1480.72 1700.38C1480.72 1700.33 1480.74 1700.29 1480.75 1700.25C1481.89 1691.54 1483.2 1683.08 1485.09 1676.12C1485.1 1676.11 1485.09 1676.1 1485.09 1676.09C1485.37 1674.9 1485.8 1673.88 1486.12 1672.84C1486.6 1671.34 1487.12 1669.92 1487.66 1668.59C1487.77 1668.34 1487.81 1668.04 1487.94 1667.78C1487.96 1667.72 1488.03 1667.71 1488.06 1667.66C1488.54 1666.56 1489 1665.38 1489.53 1664.44C1497.94 1663.69 1507.43 1661.11 1515.94 1659.56C1545.85 1654.1 1575.48 1647.27 1604.75 1639.06C1611.06 1637.27 1617.2 1634.68 1623.19 1632.91C1625.84 1632.12 1627.03 1631.98 1628.34 1631.75C1629.15 1631.49 1629.95 1631.23 1630.78 1631C1630.94 1630.96 1631.14 1630.91 1631.38 1630.84C1632.63 1630.51 1633.61 1630.33 1636.16 1629.25C1636.28 1629.23 1636.24 1629.23 1636.34 1629.22C1649.86 1624.57 1657.68 1622.06 1666.38 1619.88C1667.22 1619.66 1668.02 1619.56 1669.31 1619.31C1671.98 1618.48 1674.69 1617.57 1677.34 1616.81C1677.92 1616.65 1678.21 1616.59 1678.75 1616.44C1687.69 1613.13 1696.78 1609.71 1705.28 1606.84C1708.41 1605.79 1712.5 1604.57 1716.59 1603.31C1716.7 1603.21 1716.8 1603.07 1716.91 1602.97C1717.25 1602.65 1717.62 1602.38 1718.03 1602.06C1718.58 1601.64 1719.28 1601.12 1720.16 1600.5C1721.07 1599.85 1725.2 1597.02 1728.72 1594.62C1732.52 1591.77 1736.71 1588.63 1738 1587.66C1742.1 1584.56 1761.55 1570.14 1763 1569.06C1765.27 1567.37 1766.34 1566.62 1768.41 1565.09C1772.45 1561.63 1775.93 1558.72 1780.38 1554.84C1781.88 1553.53 1789.57 1546.1 1790.34 1545.38C1792.58 1543.27 1794.58 1541.49 1796.53 1539.88C1801.46 1535.78 1805.8 1532.95 1810.16 1531.5C1811.32 1531.11 1812.43 1530.89 1813.94 1530.94C1814.54 1530.96 1815.13 1531.16 1815.72 1531.28C1821.39 1527.56 1830.03 1522.2 1834.06 1520.19C1833.97 1520.23 1834.92 1519.69 1835.03 1519.62C1835.11 1519.58 1835.17 1519.57 1835.25 1519.53C1836.12 1518.85 1837.04 1518.08 1837.91 1517.41C1839.07 1516.32 1840.3 1515.17 1840.34 1515.12C1852.05 1504.19 1858.7 1498.26 1866 1492.28C1870.81 1487.52 1873.99 1484.38 1877.16 1481.38C1883.39 1475.46 1888.96 1469.03 1894.28 1461.72C1894.57 1461.32 1894.88 1460.68 1895.62 1458.78C1895.64 1458.75 1895.64 1458.72 1895.66 1458.69C1897.12 1454.96 1898.01 1453.16 1899.81 1450.81C1901.31 1448.86 1902.91 1446.84 1905.03 1444.28C1905.68 1443.49 1908.19 1440.5 1909.59 1438.81C1911.16 1435.83 1912.34 1433.33 1913.12 1430.91C1917.66 1416.88 1920.92 1402.01 1923.97 1383.34C1922.99 1379.01 1922.34 1375.43 1922.19 1371.72C1921.81 1362.55 1922.67 1355.13 1925.31 1339.72C1925.36 1339.46 1925.36 1339.48 1925.41 1339.22C1927.33 1328.01 1928.02 1323.14 1928.31 1317.31C1928.45 1314.6 1928.19 1311.57 1927.53 1307.38C1927.35 1306.19 1927.18 1305.17 1926.81 1303.03C1926.56 1301.56 1926.55 1301.14 1926.38 1300.06C1922.26 1295.78 1918.69 1291.98 1914.88 1288C1913.92 1287.09 1912.42 1285.7 1911.47 1284.78C1910.24 1283.57 1909.18 1282.48 1907.97 1281.28C1906.48 1279.84 1904.31 1277.91 1903.06 1276.62C1901.95 1275.48 1900.38 1273.65 1899.28 1272.5C1889.72 1262.83 1880.62 1253.45 1872.28 1244.25C1869.15 1240.79 1861.75 1231.46 1861.66 1231.34C1860.8 1230.26 1860.52 1229.96 1859.91 1229.22C1859.89 1229.23 1859.86 1229.27 1859.84 1229.28C1844.89 1213.7 1829.71 1198.3 1814.31 1183.16C1806.28 1175.16 1796.65 1164.64 1787.91 1157.69C1772.04 1137.88 1748.25 1136.05 1755.88 1109.69C1758.4 1100.95 1742 1087.57 1735.62 1080.91C1704.72 1048.59 1663.97 1017.64 1624.16 997.219C1615.88 992.9 1607.43 988.856 1598.88 985.125C1590.66 981.627 1552.45 968.135 1549 964.438C1548.27 960.352 1551.36 959.072 1552.16 954.188C1553.89 945.491 1553.13 925.612 1557.81 918.531C1590.91 868.502 1624.05 818.337 1647.38 762.562C1655.46 743.38 1662.91 723.945 1669.81 704.312C1673.49 690.947 1677.47 678.095 1677.47 678.094C1680.65 668.423 1682.02 664.115 1683.62 658.75C1685.55 652.293 1687 646.365 1689.47 635.25C1689.57 634.791 1689.65 634.41 1689.84 633.562C1691.54 625.912 1692.33 622.405 1693.41 618.094C1695.77 608.623 1697.36 599.178 1697.94 590.438C1698.01 589.324 1698 588.327 1697.97 586C1697.96 585.696 1697.97 585.548 1697.97 585.375C1697.93 581.434 1698.05 579.113 1698.56 576.375C1703.56 550.151 1711.41 529.935 1724.78 515.125C1733.54 505.418 1744.44 497.733 1755.75 493.875C1757.68 493.217 1761.5 492.354 1762.5 492.125C1763.42 491.358 1764.25 490.5 1765.19 489.75C1769.84 485.461 1774.36 481.269 1777.78 477.75C1779.23 476.234 1780.48 474.923 1781.56 473.719C1782.59 472.592 1783.67 471.455 1784.62 470.344C1784.88 470.043 1785.15 469.76 1785.28 469.594C1785.42 469.427 1785.56 469.261 1785.69 469.094C1787.49 466.915 1789.19 464.75 1790.84 462.469C1793.89 458.239 1794.72 456.768 1795.28 454.375C1795.39 453.921 1795.6 453.539 1795.78 453.125C1799.79 441.866 1805.97 430.674 1809.22 418.781C1837.5 315.128 1739.75 223.675 1638.44 255.219C1628.21 258.404 1608.82 268.649 1599.12 269.656C1602.45 269.866 1602.26 269.158 1603.75 270.688C1595.91 275.626 1583.4 287.289 1576.81 293.75C1541.77 260.238 1509.94 233.497 1467.75 208.594C1462.34 205.263 1456.26 201.912 1450.72 198.719C1377.39 160.628 1338.85 147.005 1259.47 131.031C1185.53 119.079 1135.63 120.038 1062.47 128.344C1061.02 119.13 1059.23 111.15 1057.16 102.094C1055.6 97.4874 1052.5 91.5443 1052.19 87.0625C1049.87 72.8374 1020.08 42.8266 1008.12 34.6562C985.766 19.3818 960.168 12.2334 934.688 12.3125ZM933.531 50.3125C971.083 51.1028 1005.07 70.6579 1019.25 107.406C1022.82 116.655 1024.08 125.286 1025.59 135.062C1021.06 137.095 1012.9 139.168 1007.88 140.562C1003.98 118.915 1000.26 103.118 982.281 88.5C965.763 74.9547 944.463 68.7568 923.25 71.3125C901.834 73.7765 886.964 82.3048 873.75 99C848.317 131.95 854.04 166.773 880.562 196.5C874.204 200.604 868.87 203.939 862.25 207.594C849.168 194.197 840.689 175.693 838.25 157.188C834.852 132.243 841.637 106.995 857.094 87.125C874.612 64.6615 898.397 53.9946 925.969 50.4062C928.499 50.2917 931.033 50.2595 933.531 50.3125ZM928.375 108.031C958.142 106.773 970.323 125.335 970.438 152.625C958.473 157.624 946.553 162.688 934.656 167.844C928.727 170.836 922.764 173.48 916.719 176.219C883.292 157.669 890.167 120.915 925.594 108.188C926.518 108.124 927.46 108.072 928.375 108.031ZM874.344 382.469C915.38 382.994 938.597 410.316 944.562 449.344C949.377 482.561 940.601 516.309 920.25 543C902.652 566.479 884.397 577.607 855.844 581.781C841.4 581.898 826.616 577.773 815.125 568.844C755.552 522.557 787.762 409.414 854.438 386.5C861.299 384.142 867.17 383.317 874.344 382.469ZM1259.81 495.125C1293.65 495.394 1316.19 516.849 1324.41 550.094C1332.22 582.554 1326.74 616.771 1309.22 645.188C1293.1 671.368 1272.32 686.82 1242.59 693.875C1225.73 695.27 1208.48 692.875 1194.88 681.75C1132.38 630.631 1175.5 504.105 1252.91 495.344C1255.26 495.171 1257.56 495.102 1259.81 495.125ZM1656.34 617.25L1656 618.188C1652.59 627.62 1649.79 639.877 1646.81 649.781C1641 668.353 1634.87 686.821 1628.44 705.188C1609.89 758.193 1562.25 853.493 1525.69 896.469C1514.48 896.426 1504.97 896.288 1493.81 897.344C1502.58 884.724 1510.63 870.137 1518.69 856.938C1562.77 784.849 1591.78 710.783 1614.62 629.562C1614.86 627.913 1615.58 626.149 1616.12 624.531C1619.4 621.967 1618.24 622.77 1622.97 622.281C1633.54 621.255 1646.03 619.622 1656.34 617.25ZM648.5 1028.28L651.25 1030.81C655.312 1041.4 653.043 1050.8 643.219 1057.34C638.581 1060.46 632.862 1061.51 627.406 1060.28C619.699 1058.51 615.807 1053.8 611.844 1047.53C609.916 1041.54 609.497 1036.36 612.938 1030.97L614.406 1030.75C617.281 1037.02 619.539 1044.88 628.031 1045.97C640.271 1047.53 646.071 1039.08 648.5 1028.28ZM271.969 1054.53L281.656 1056.09L292.438 1058.41L299.25 1061.25C299.25 1061.25 309.837 1065.94 313.75 1068.16C317.786 1070.57 321.646 1072.3 324.25 1076.06L323.25 1077C318.591 1076.04 315.828 1074 311.719 1071.59C306.962 1070.52 295.531 1065.88 295.531 1065.88L275.312 1059.38C275.312 1059.38 264.454 1058.48 260.844 1056.41L261.906 1055.09L271.969 1054.53ZM989.781 1086.44C993.127 1089.21 993.193 1091.48 994.906 1095.97C997.749 1098.16 1001.39 1100.07 1004.53 1101.88C1020.78 1102.25 1024 1095.87 1028.47 1087.5C1030.8 1092.69 1030.7 1098.92 1028.81 1105.75C1011.32 1131.36 977.053 1112.79 989.781 1086.44ZM203.062 1098.59C212.796 1099.11 222.511 1099.6 232.25 1100C226.195 1102.09 218.383 1105.75 212.344 1108.38C205.107 1112.09 198.545 1116.31 191.656 1120.62C195.144 1113.32 198.717 1105.35 203.062 1098.59ZM1182.97 1114.5C1186.54 1115.85 1188.51 1122.11 1191.38 1126.91C1217.42 1137.5 1209.25 1121.24 1219.75 1119.38C1221.55 1123.08 1220.11 1129.47 1219.09 1133.38C1209.97 1146.22 1205.1 1146.63 1190.44 1143.53C1181.26 1135.57 1174.98 1126.23 1182.97 1114.5ZM516.5 1190.72C517.694 1190.62 518.891 1190.6 520.031 1190.75C612.92 1202.46 707.098 1215.59 799.75 1227.94L1098.88 1268.25C1155.27 1275.75 1211.92 1282.21 1268.22 1290.62C1271.84 1291.17 1278.43 1292.1 1280.81 1294.84C1281.91 1307.2 1277.45 1336.19 1275.62 1348.78C1273.1 1366.25 1271.64 1384.19 1268.53 1401.53C1267.51 1407.28 1268.99 1409.82 1266.94 1415.34C1266.84 1415.38 1266.34 1415.39 1266.22 1415.44C1259.52 1424.68 1259.06 1425.3 1258.81 1424.22C1258.33 1424.32 1258.34 1424.31 1258.12 1424.34C1257.96 1424.37 1257.8 1424.4 1257.62 1424.41C1257.43 1424.43 1252.59 1424.91 1252.66 1424.91C1249.64 1425.28 1242.18 1425.69 1242.12 1425.69C1238.01 1425.87 1236.23 1425.95 1234.12 1426.19C1216.19 1428.11 1205.47 1429.86 1194.28 1433.06C1187.53 1435 1180.79 1437.28 1174.06 1439.81C1171.85 1440.79 1169.68 1441.76 1167.09 1442.97C1165.76 1443.6 1158.97 1446.89 1157.97 1447.38C1156.37 1448.15 1152.21 1449.85 1152.03 1449.94C1148.73 1451.31 1147.2 1452.03 1145.72 1452.88C1144.87 1453.36 1143.96 1453.56 1143.06 1453.78C1132.54 1459.15 1121.99 1464.98 1111.34 1471.75C1100.73 1478.51 1093.6 1484.84 1089.31 1491.97C1088.83 1492.77 1087.65 1494.45 1087.59 1494.53C1087.13 1495.18 1086.97 1495.44 1086.84 1495.66C1086.84 1495.66 1086.82 1495.66 1086.81 1495.69C1085.89 1498.81 1085.66 1502.34 1086.03 1506.62C1086.33 1510 1086.88 1513.06 1088.16 1519.28C1088.83 1522.54 1088.99 1523.33 1089.28 1524.84C1089.53 1526.14 1090.46 1531.47 1090.59 1532.19C1090.96 1534.23 1091.29 1535.36 1091.62 1536.84C1092.17 1537.97 1092.4 1538.67 1093 1539.88C1093.55 1540.99 1097.12 1548.18 1097.81 1549.59C1099.62 1553.31 1101.05 1556.38 1102.28 1559.31C1103.84 1563.03 1104.73 1565.89 1106.34 1571.97C1107.5 1576.35 1108.04 1578.19 1108.84 1580.38C1109.15 1581.19 1109.21 1581.39 1110.06 1583.59C1112.37 1589.53 1113.42 1592.78 1114.03 1597C1114.1 1597.5 1114.18 1598.04 1114.28 1598.72C1114.94 1603.35 1115.12 1604.51 1115.47 1606.62C1116.73 1614.26 1118.21 1619.65 1120.47 1624.12C1121.91 1626.99 1127 1634.66 1127 1634.66C1130.31 1639.52 1131.76 1641.76 1133.47 1644.81C1138.87 1654.44 1143.12 1661.42 1147.84 1668.22C1148.55 1669.24 1149.6 1670.15 1152.47 1672.34C1152.52 1672.38 1152.52 1672.37 1152.56 1672.41C1155.71 1674.8 1157.2 1676.03 1159.03 1677.97C1166.94 1686.38 1175.79 1694.22 1187.25 1703.25C1195.31 1701.19 1204.21 1696.39 1209.66 1699.91C1210.07 1701.22 1210.35 1702.02 1209.91 1703.41C1204.51 1720.42 1204.96 1737.62 1202.78 1754.56C1200.37 1762.62 1195.42 1804.65 1195.66 1813.31C1194.55 1814.32 1190 1818.57 1189.03 1818.41C1151.14 1811.78 1104.68 1806.45 1066.94 1801.31L659.656 1744.69L574.625 1733.84C562.478 1732.19 549.826 1729.64 537.938 1728.16L474.438 1720.34C463.32 1718.86 448.661 1717.61 438.406 1713.72C438.403 1712.68 438.581 1711.28 438.75 1709.91C436.429 1710.03 434.065 1709.49 432.062 1708.03C430.184 1706.67 429.188 1705.17 428.5 1703.53C428.212 1702.85 428.044 1702.24 427.906 1701.62C426.608 1695.78 427.319 1689.83 429.438 1682.06C429.781 1680.81 430.186 1679.4 430.656 1677.84C432.248 1665.9 433.982 1652.41 434 1652.28C434.025 1652.1 434.04 1652.09 434.094 1651.78C434.145 1651.39 434.131 1651.37 434.719 1649.59C434.724 1649.28 434.878 1649.05 434.969 1648.78C435.015 1648.43 435.05 1648.1 435.062 1648C435.836 1641.3 436.719 1634.54 438 1625.47C438.304 1623.32 439.773 1613.05 440.031 1611.25C442.221 1595.75 445.517 1580.69 450.938 1560.03C452.064 1555.74 456.483 1539.29 457 1537.34C458.736 1530.83 459.745 1525.35 461.656 1512.88C461.748 1512.28 461.75 1512.29 461.844 1511.69C463.694 1499.62 464.837 1493.32 466.781 1486.03C467.187 1484.51 467.509 1483.55 468.406 1480.81C468.962 1479.12 469.214 1478.23 469.469 1477.34C469.783 1476.22 469.981 1475.32 470.062 1474.59C470.185 1473.51 470.279 1472.36 470.438 1470.44C470.862 1465.39 470.945 1464.56 471.219 1462.25C472.13 1454.62 473.616 1448.75 476.531 1443.69C479.475 1438.57 483.784 1434.95 489.094 1433.03C489.171 1432.93 489.232 1432.81 489.312 1432.72C490.932 1430.61 492.855 1428.78 495.344 1426.78C496.278 1426.03 499.234 1423.76 499.625 1423.44C501.383 1421.97 503.268 1420.38 505.688 1418.22C506.62 1417.39 510.966 1413.49 512.188 1412.41C517.089 1408.06 521.101 1404.81 525 1401.84C526.929 1399.69 528.182 1398.19 531.031 1395.06C535.585 1390.08 540.199 1384.71 544.906 1379.28C547.945 1375.47 550.995 1371.69 553.781 1367.88C554.356 1367.09 554.94 1366.25 555.594 1365.38C556.497 1364.15 564.279 1353.58 565.75 1351.53C576.068 1337.16 582.192 1326.82 586.125 1316.19C590.759 1303.66 591.885 1291.37 589.094 1277.94C588.699 1276.03 588.101 1271.46 588.094 1271.38C587.613 1267.28 587.31 1265.67 586.656 1264.31C583.184 1257.12 578.931 1252.55 568.094 1243.22C567.766 1242.94 567.765 1242.94 567.438 1242.66C558.713 1235.14 554.531 1231.11 550.031 1225.16C548.909 1223.67 548.39 1221.97 548.156 1220.25C546.013 1218.38 543.844 1216.5 541.25 1214.53C533.243 1208.46 515.242 1199.64 512.969 1191.16C514.106 1190.99 515.309 1190.82 516.5 1190.72ZM431.375 1211.91C437.647 1212.6 445.981 1218.42 450.344 1220.94C484.786 1240.79 513.608 1267.47 540.125 1296.81C546.954 1303.55 552.046 1307.72 553.719 1317.31L552.938 1319.78C547.766 1321.05 545.227 1317.2 541.906 1313.5C514.585 1284.51 488.241 1257.8 455.594 1234.34C450.93 1230.98 427.206 1216.55 426.375 1212.94C427.102 1212.41 427.938 1212.1 428.844 1211.94C429.639 1211.8 430.482 1211.81 431.375 1211.91ZM1810.03 1232.56C1814.31 1236.93 1818.68 1240.96 1821.88 1246.16C1815.36 1246.34 1810.35 1246.41 1807.31 1239.91C1807.42 1235.78 1807.53 1236.01 1810.03 1232.56ZM379.406 1259.97C395.273 1268.66 428.371 1290.08 441.188 1302.09C453.717 1311.73 508.473 1359.37 514.188 1369.84C514.267 1373.44 512.933 1376.38 509.375 1377.84C507.591 1377.1 450.986 1322.55 444.156 1316.34C440.573 1314.4 426.303 1302 422.75 1298.94C411.984 1289.54 401.184 1280.74 389.031 1273.16C385.121 1270.73 376.295 1265.87 377.438 1260.84L379.406 1259.97ZM1820.38 1290.34C1832.95 1290.28 1874.2 1290.22 1880.12 1304.66C1878.27 1304.91 1849.01 1297.59 1843.25 1296.47C1827.32 1294.47 1795.9 1292.96 1781.16 1299.25L1781.66 1297.88C1786.58 1293.39 1813.17 1290.85 1820.38 1290.34ZM336.344 1322.22C342.154 1324.07 347.621 1326.65 352.906 1329.59C358.133 1332.51 363.164 1335.81 368.188 1339.09C389.502 1353.53 448.537 1396.93 461.094 1417.16L460.625 1418.19L455.25 1417.78L454.781 1419.12C456.612 1422.17 457.045 1422.28 459.719 1424.53L461.188 1424.56L462.031 1419.19C464.961 1418.59 463.478 1418.57 466.594 1419.69C468.227 1425.02 464.094 1427.96 460.281 1431.12C425.604 1396.29 403.632 1374.98 364.125 1345.09C361.8 1343.48 356.5 1339.84 356.5 1339.84C356.5 1339.84 340.876 1328.41 336.344 1322.22ZM1790.19 1337.81C1790.74 1337.8 1791.36 1338 1793.12 1338.12C1817.77 1337.16 1840.55 1341.48 1863.44 1350.53C1870.2 1353.61 1877.88 1357.17 1883.97 1361.47C1892.32 1365.49 1900.52 1372.66 1907.53 1378.66C1912.29 1382.32 1921.19 1387.3 1917.62 1394.06C1913.15 1394.63 1908.21 1389.93 1905.75 1386.44C1900.61 1382.21 1892.23 1377.21 1887.84 1372.78C1879.36 1367.64 1870.82 1362.58 1862.22 1357.66C1848.11 1351.01 1827.42 1343.05 1811.81 1341.88C1810.21 1341.84 1808.61 1341.79 1807 1341.69C1803.49 1341.49 1789.65 1340.8 1787.72 1338.62C1789.16 1338.02 1789.64 1337.83 1790.19 1337.81ZM1792.47 1390.84C1803.52 1388.71 1835.87 1409.85 1845.12 1417.34C1860.54 1428.39 1875.37 1450.69 1885.28 1467.06C1883.42 1468.82 1880.61 1471.63 1878.72 1473.16C1870.65 1458.58 1863.19 1447.82 1852.09 1435.31C1850 1432.97 1839.57 1422.71 1838.81 1421.72C1818.24 1403.44 1810.46 1404.45 1792.56 1392.16L1792.47 1390.84ZM1619.47 1657.56C1619.22 1657.83 1618.97 1658.11 1618.72 1658.38C1619.01 1658.27 1619.24 1658.21 1619.53 1658.09L1619.47 1657.56ZM581.5 1772.84C587.57 1774.33 591.884 1775.29 598.062 1776.25L598.719 1779.59C596.639 1781.47 597.51 1781.02 594.812 1781.59C589.189 1778.55 586.612 1776.6 581.5 1772.84Z" fill="#02234b" fill-rule="nonzero" opacity="1" stroke="none"/>
<path d="M1340.97 1071.3L1291 1063.85L1173.65 1850.89L1223.62 1858.34L1340.97 1071.3Z" fill="#02234b" fill-rule="nonzero" opacity="1" stroke="none"/>
<path d="M1144.81 1031.91L1094.84 1024.46L977.493 1811.51L1027.46 1818.96L1144.81 1031.91Z" fill="#02234b" fill-rule="nonzero" opacity="1" stroke="none"/>
<path d="M691.683 967.031L574.308 1754.06L624.277 1761.53L741.621 974.469L691.683 967.031Z" fill="#02234b" fill-rule="nonzero" opacity="1" stroke="none"/>
<path d="M943.401 1016.4L893.437 1008.95L776.088 1795.99L826.052 1803.44L943.401 1016.4Z" fill="#02234b" fill-rule="nonzero" opacity="1" stroke="none"/>
<path d="M802.954 111.28C797.044 157.192 799.57 176.271 821.045 217.29C805.199 223.382 784.164 226.69 767.355 231.916C730.028 243.764 693.462 257.884 657.86 274.199C523.435 335.204 391.249 450.674 306.632 571.607C274.109 618.617 245.846 668.437 222.181 720.472C159.443 854.841 135.964 1011.33 149.428 1158.59C102.115 1243.1 131.697 1324.78 211.309 1375.12C213.927 1389.14 225.469 1413.37 231.582 1426.95C270.969 1514.4 335.625 1608.61 406.364 1674.42C402.271 1692.28 386.599 1747.08 413.889 1750.94C442.041 1754.92 471.708 1757.4 499.354 1764.35C502.867 1765.28 516.49 1776.15 520.828 1779.17C532.918 1787.6 545.201 1795.76 557.668 1803.62C595.202 1827.13 645.641 1853.44 686.796 1870.39C964.915 1986.32 1282.84 1953.4 1531.31 1782.94C1580.96 1748.64 1626.19 1708.32 1665.94 1662.9C1674.59 1653.1 1682.94 1643.02 1690.96 1632.7C1708.97 1609.52 1708.99 1604.8 1737.05 1592.48C1751.7 1586.04 1782.6 1570.48 1794.62 1560.45C1815.02 1559.6 1832.26 1551.71 1850.91 1544.84C1855.9 1546.12 1866.42 1546.6 1868.68 1547.89C1870.37 1550.59 1869.74 1554.66 1869.62 1558.07L1868.87 1559.06C1864.89 1564.4 1861.19 1571.52 1857.53 1577.46C1849.57 1590.34 1841.51 1603.15 1833.32 1615.88C1816.47 1642.05 1794.72 1670.29 1774.77 1694.33C1623.81 1875.08 1412.3 1994.8 1179.62 2031.19C1165.78 2033.3 1053.3 2045.13 1048.99 2048L996.187 2048C987.636 2042.25 962.731 2043.07 951.558 2041.66C918.856 2037.85 886.293 2032.94 853.924 2026.92C668.389 1993.1 496.703 1906.02 359.802 1776.31C271.867 1694.48 199.724 1596.36 146.901 1488.47C57.514 1302.28 29.3005 1092.58 66.296 889.377C108.241 665.631 226.407 463.326 400.691 316.88C482.285 248.623 589.617 185.815 689.56 149.912C712.81 141.623 736.264 133.919 759.901 126.806C772.374 123 791.852 119.06 801.958 111.989L802.954 111.28Z" fill="#f3a65b" fill-rule="nonzero" opacity="0" stroke="none"/>
<path d="M1915.6 1053.99C1904.73 868.915 1851.17 703.747 1740.39 553.752C1733.37 544.251 1715.54 526.343 1713.81 515.651C1716.19 509.84 1727.49 509.623 1735.88 505.032C1752.56 495.903 1766.45 486.377 1779.45 472.261C1783.17 468.215 1790.54 458.202 1793.93 455.677L1794.3 457.208C1801.82 469.86 1816.97 486.399 1826 499.293C1852.1 536.02 1875.98 574.275 1897.51 613.855C1983.08 774.362 2021.69 955.732 2008.91 1137.17C2003.94 1215.69 1989.9 1288.63 1966.65 1363.68C1964.22 1371.53 1958.29 1378.47 1956.54 1384.63C1955.39 1384.52 1955.17 1384.68 1954.91 1383.05C1952.94 1370.6 1951.28 1356.07 1947.79 1344.13C1939.75 1316.54 1917.3 1285 1896.97 1264.56C1905.46 1220.5 1915.22 1161.13 1915.13 1116.04C1916.7 1108.47 1915.72 1064.21 1915.6 1053.99Z" fill="#f3a65b" fill-rule="nonzero" opacity="0" stroke="none"/>
<path d="M1294.41 177.971L1264.41 170.91C1264.41 170.91 1247.36 167.882 1235.88 165.959C1224.39 164.036 1218.47 163.219 1218.47 163.219C1218.47 163.219 1184.76 159.438 1164 159.312C1129.4 159.103 1091.1 161.832 1066.94 165.938C990.231 178.968 909.072 214.696 851.906 268.156C842.17 277.261 829.882 289.522 822.312 300.219C834.123 302.317 848.926 306.765 860.906 309.875L925.781 326.531C969.532 337.706 1012.19 346.573 1055.56 357.125C1055.63 356.925 1076.87 361.297 1090.76 364.817C1101.6 367.566 1148.78 377.98 1161.16 380.281C1221.66 391.524 1284.28 405.391 1334.91 442.562C1384.13 478.176 1417.13 531.977 1426.56 592C1453.82 770.614 1284.26 918.117 1121.88 944.406C1110.42 946.261 1099.14 948.523 1087.56 949.688C1076.66 950.783 1065.14 950.567 1054.38 952.188L1053.5 952.312C1050.64 952.96 1047.23 953.426 1044.91 955.031C1054.27 955.462 1079.3 962.021 1089.16 964.344C1108.06 968.812 1127.09 972.721 1146.22 976.125C1242.32 993.348 1343.86 999.741 1439.81 978.469C1464.11 973.083 1488.35 966.575 1510.91 955.906C1513.96 949.696 1515.63 944.057 1517.78 937.5C1511.37 938.359 1503.52 939.672 1497 939.031C1476.24 936.988 1414.39 950.823 1442.38 909.125C1491.26 836.302 1533.2 762.976 1560.59 679.438C1565.98 662.579 1570.74 645.519 1574.88 628.312C1577.05 619.563 1580.67 602.402 1584.06 594.844C1593.4 586.873 1607.19 587.783 1619.16 586.219C1635 584.242 1650.72 581.323 1666.22 577.5C1670.29 564.039 1673.31 537.297 1675.97 522.438C1650.24 518.544 1636.5 514.867 1613 503C1555.49 473.948 1523.89 386.837 1556.62 328.906C1502.35 263.589 1412.1 215.363 1332.5 188.906C1312.95 182.409 1310.52 182.541 1310.52 182.541" fill="#61a0a5" fill-rule="nonzero" opacity="1" stroke="none"/>
<path d="M1252.55 219.929C1236.44 202.35 1163.86 183.11 1141.84 193.119" fill="#61a0a5" fill-rule="nonzero" opacity="1" stroke="none"/>
<path d="M1210.28 197.85C1181.16 177.464 1097.45 201.754 1116.92 246.424C1132.65 282.496 1201.52 274.005 1232.36 270.08C1240.67 269.023 1248.9 268.187 1257.28 268.187C1259.59 268.187 1262.67 269.906 1264.22 268.187C1265.47 266.8 1260.08 254.387 1259.17 252.732C1252.99 241.402 1245.66 234.01 1247.19 220.244" fill="#61a0a5" fill-rule="nonzero" opacity="1" stroke="none"/>
<path d="M1158.65 263.758C1143.35 267.479 1130.28 253.127 1113.04 258.332C1092.97 264.391 1074.42 292.602 1089.77 311.626C1110.39 337.168 1180.23 328.061 1191.38 295.219C1198.72 273.635 1183.6 257.687 1158.65 263.758Z" fill="#61a0a5" fill-rule="nonzero" opacity="1" stroke="none"/>
<path d="M1154.11 201.145C1155.68 201.231 1157.26 201.355 1158.83 201.516C1170.75 202.741 1235.44 216.176 1240.63 224.255C1242.94 227.86 1242.55 233.841 1241.27 237.731C1239.61 242.757 1236.07 245.216 1231.57 247.536C1219 249.306 1192.25 237.991 1178.1 235.772C1158.87 232.757 1129.7 223.942 1154.11 201.145Z" fill="#02234b" fill-rule="nonzero" opacity="1" stroke="none"/>
<path d="M1106.52 276.153C1120.91 275.278 1135.58 282.12 1149.13 283.485C1168.22 285.409 1194.23 298.593 1167.72 316.642C1150.51 316.295 1136.68 309.576 1120.77 307.029C1103.18 304.216 1080.11 288.579 1106.52 276.153Z" fill="#02234b" fill-rule="nonzero" opacity="1" stroke="none"/>
<path d="M1091.69 402.969C1066.47 451.115 1043.74 500.52 1023.59 551C1016.05 570.149 1010.62 588.288 1003.66 606.812C1020.62 611.098 1049.57 627.323 1057.88 643.062C1078.33 681.882 1030.73 723.421 1000 738.844C979.508 749.13 962.252 753.288 940.125 754.938C934.825 807.67 935.119 854.368 955.125 905C1032.73 919.513 1083.37 917.695 1158.22 895.375C1242.46 871.235 1318.79 815.564 1362.25 738.375C1420.3 635.294 1393.54 511.07 1286.5 453.656C1227.07 421.781 1156.51 419.044 1091.69 402.969Z" fill="#f3a65b" fill-rule="nonzero" opacity="1" stroke="none"/>
<g opacity="1">
<path d="M1214.73 528.961C1200.51 530.352 1181.15 540.832 1171.64 552.334C1153.97 573.707 1146.78 603.782 1148.95 631.602C1151.46 663.578 1184.25 696.86 1218.43 676.78C1251.07 658.252 1268.43 614.435 1265.38 577.968C1264.16 563.324 1254.89 547.463 1243.27 537.786C1235.32 530.892 1223.26 528.127 1214.73 528.961Z" fill="#ffffff" fill-rule="nonzero" opacity="1" stroke="none"/>
<path d="M1216.62 506.514C1254.31 503.742 1279.37 525.796 1288.13 561.257C1295.94 593.717 1290.47 627.951 1272.95 656.367C1256.83 682.547 1236.05 698.005 1206.32 705.055C1189.46 706.45 1172.19 704.053 1158.59 692.928C1096.09 641.809 1139.22 515.275 1216.62 506.514ZM1214.46 662.89C1242.03 648.581 1256.88 615.375 1255.47 585.164C1254.9 573.032 1251.33 559.784 1242.01 551.438C1225.04 535.609 1202.83 546.824 1189.69 561.561C1174.42 578.676 1165.17 602.129 1166.12 625.172C1167.22 651.657 1185.57 678.435 1214.46 662.89Z" fill="#02234b" fill-rule="nonzero" opacity="1" stroke="none"/>
</g>
<path d="M527.694 978.533C544.866 982.213 565.679 981.528 583.091 985.285C591.6 987.122 615.68 985.934 620.449 992.447C619.567 999.403 604.118 1005.22 598.924 1011.29C575.238 1038.98 594.783 1084.54 632.287 1082.98C643.952 1082.47 654.908 1077.23 662.639 1068.48C670.479 1059.81 674.565 1048.38 674.002 1036.7C672.966 1018.46 664.904 1012.99 652.678 1001.76C652.493 998.535 652.467 998.76 653.662 995.759C663.223 993.844 789.367 1012.21 807.325 1015.91C807.111 1019.44 806.838 1022.96 806.507 1026.48C787.431 1034.67 775.999 1044.38 775.566 1066.8C775.287 1078.6 779.994 1089.97 788.53 1098.12C797.09 1106.37 808.589 1110.85 820.471 1110.57C858.989 1109.89 879.811 1060.41 847.808 1036.48C842.384 1032.42 840.302 1026.41 844.976 1021.15C854.472 1021.28 889.949 1026.75 900.599 1028.34C931.729 1033 966.026 1036.55 996.764 1042.2C996.868 1066.22 990.894 1053.67 977.822 1065.81C949.474 1092.14 969.631 1139.86 1008.29 1140.75C1019.36 1140.94 1030.04 1136.64 1037.9 1128.84C1046.91 1119.94 1051.73 1106.87 1051.53 1094.53C1051.22 1075.01 1044.48 1073.35 1032.32 1061.68C1028.45 1057.97 1029.58 1054.28 1029.68 1048.96C1082.97 1055.85 1135.18 1062.45 1188.48 1070.3C1188.09 1075.07 1187.89 1080.17 1187.61 1084.97C1183.4 1086.79 1178.3 1089.35 1174.08 1091.34C1172.03 1093.05 1169.92 1094.83 1168.06 1096.75C1160.71 1104.33 1156.7 1114.54 1156.92 1125.09C1157.72 1166.23 1207.15 1182.64 1234.56 1150.34C1241.6 1142.19 1244.9 1131.47 1243.67 1120.78C1241.95 1105.08 1233.55 1095.99 1222.14 1086.66C1222.82 1082.99 1223.32 1078.79 1223.85 1075.05C1252.04 1077.6 1282.37 1081.95 1310.52 1085.9C1309.38 1100.33 1305.99 1119.24 1304.08 1134.01L1287.6 1257.15C1252.91 1253.8 1213.94 1247.66 1179.11 1243.03L929.903 1209.28C844.408 1198.52 758.979 1187.24 673.62 1175.44C640.327 1171.2 607.059 1166.77 573.817 1162.14C554.862 1159.59 533.89 1157.22 515.174 1153.89L527.694 978.533Z" fill="#f3a65b" fill-rule="nonzero" opacity="1" stroke="none"/>
<path d="M796.094 328.656C775.589 353.35 760.574 379.571 745.938 407.938C710.864 475.916 688.789 546.165 695.719 623.562C703.48 710.246 747.629 781.252 813.469 836.062C851.897 868.053 873.288 874.251 916.375 894.094C906.792 861.841 898.449 816.229 901.375 782.5C902.01 769.327 903.439 757.327 904.938 744.219C883.492 729.464 871.508 716.892 858.031 694.844C837.308 660.944 832.375 596.017 884.031 588.656C910.991 584.815 941.443 590.025 967.906 595.625C973.617 580.536 978.454 565.068 984.281 549.969C998.374 513.521 1014.15 477.75 1031.53 442.75C1038.28 428.922 1048.48 406.981 1056.72 394.656C1047.54 392.092 1038.35 389.974 1029.09 387.719C951.813 368.879 871.97 352.643 796.094 328.656Z" fill="#f3a65b" fill-rule="nonzero" opacity="1" stroke="none"/>
<path d="M842.745 533.868C847.839 533.904 862.061 533.715 865.01 537.401L863.76 538.864C857.338 539.284 846.788 541.41 842.502 536.606L842.745 533.868Z" fill="#fefefe" fill-opacity="0.796078" fill-rule="nonzero" opacity="1" stroke="none"/>
<path d="M862.938 422.978C871.692 418.255 879.789 417.713 888.894 422.137C883.236 423.59 885.083 427.546 875.604 425.284C871.543 424.315 866.972 422.646 862.938 422.978Z" fill="#fefefe" fill-opacity="0.709804" fill-rule="nonzero" opacity="1" stroke="none"/>
<path d="M1664.75 1317.53C1659.42 1317.47 1655.07 1317.73 1652.66 1318.47C1560.69 1321.65 1403.1 1382.61 1326.91 1431.81C1350.48 1479.15 1371.83 1588.04 1355.16 1637.44C1384.02 1637.35 1409.45 1634.87 1437.5 1633.72C1459.68 1631.12 1488.53 1628.15 1510.16 1623.47C1594.07 1605.34 1694.62 1577.86 1767.94 1534.25C1768.19 1455.34 1754.34 1391.02 1714.22 1322.22C1705.67 1320.75 1680.75 1317.72 1664.75 1317.53Z" fill="#61a0a5" fill-rule="nonzero" opacity="1" stroke="none"/>
<path d="M1448.5 1670.75C1400.03 1675.8 1355.22 1677.71 1306.59 1675.38C1301.25 1675.12 1260.27 1685.67 1251.66 1687.47C1242.92 1736.66 1237.89 1786.82 1230.03 1836.16C1229.1 1841.97 1227.4 1853.69 1223.22 1857.78C1212.17 1859.59 1177.78 1854.31 1164.84 1852.66L1086.47 1842.56L646.344 1783.31C630.241 1781.22 614.34 1778.29 598.062 1776.25L598.719 1779.59C596.639 1781.47 597.512 1781.02 594.812 1781.59C608.606 1790.64 626.122 1799.17 640.688 1806.88C683.701 1829.64 726.167 1847.73 772.812 1862.03C990.771 1930.18 1226.9 1908.87 1429.12 1802.78C1430.92 1784.06 1434.35 1763.74 1437.16 1745.03C1440.74 1720.24 1444.53 1695.48 1448.5 1670.75Z" fill="#61a0a5" fill-rule="nonzero" opacity="1" stroke="none"/>
<path d="M1478.78 1004.43L1480.57 1004.05C1480.93 1005.6 1466.97 1021.88 1464.69 1024.88C1444.04 1052.18 1431.63 1085.8 1431.55 1120.44C1431.38 1192.56 1461.48 1240.67 1508.64 1290.55C1506.16 1297.61 1504.76 1303.81 1503.47 1311.12C1487.06 1315.21 1466.74 1323.98 1450.78 1330.06C1401.38 1348.86 1354.91 1372.12 1307.78 1395.9C1309.2 1384.85 1310.97 1371.23 1311.73 1360.24C1313.28 1336.19 1319.37 1297.31 1322.66 1272.79C1328.44 1229.38 1334 1185.94 1339.33 1142.48C1342.18 1120.39 1348.11 1083.7 1348.3 1062.53C1345.51 1057.47 1343.84 1053.91 1337.57 1052.84C1325.13 1050.73 1312.51 1049.4 1299.99 1047.76L1230.5 1037.97L1228.58 1032.8C1228.58 1032.8 1227.31 1029.77 1222.43 1029.77C1217.55 1029.77 1220.06 1022.91 1220.06 1022.91C1230.82 1025.1 1261.14 1026.53 1272.31 1027.32C1341.3 1032.16 1412.96 1026.44 1478.78 1004.43Z" fill="#61a0a5" fill-rule="nonzero" opacity="1" stroke="none"/>
<path d="M325.469 1117.75C319.174 1117.74 313.001 1117.96 306.969 1118.44C274.881 1121.95 258.62 1125.52 229.281 1140.53C147.231 1182.51 143.457 1275.69 213.5 1331.91C237.268 1350.99 263.842 1359.46 294.031 1364.28C295.08 1358.55 295.996 1352.87 297.531 1347.25C316.799 1260.4 376.609 1190.92 455.125 1151.41C418.753 1129.63 369.533 1117.82 325.469 1117.75Z" fill="#61a0a5" fill-rule="nonzero" opacity="1" stroke="none"/>
<path d="M1539.98 1006.73C1598.6 1018.02 1664.13 1063.62 1705 1106.41C1662.35 1131.92 1615.43 1173.69 1580.82 1209.26C1565.84 1224.85 1547.15 1245.37 1533.87 1262.3C1518.55 1244.73 1504.52 1229.12 1492.97 1208.63C1477.04 1180.38 1467.82 1151.09 1468.87 1118.46C1469.99 1083.98 1485.67 1054.3 1511.02 1031.37C1520.54 1022.77 1530.66 1015.36 1539.98 1006.73Z" fill="#61a0a5" fill-rule="nonzero" opacity="1" stroke="none"/>
<path d="M1676.38 286.938C1622.53 287.94 1579.84 332.604 1581.25 386.438C1582.66 440.269 1627.65 482.638 1681.47 480.812C1734.72 479.008 1776.52 434.599 1775.12 381.344C1773.73 328.089 1729.65 285.946 1676.38 286.938Z" fill="#61a0a5" fill-rule="nonzero" opacity="1" stroke="none"/>
<path d="M1675.38 307.906C1632.73 309.394 1599.41 345.292 1601.12 387.938C1602.83 430.581 1638.87 463.696 1681.5 461.781C1723.84 459.88 1756.69 424.125 1755 381.781C1753.31 339.438 1717.74 306.429 1675.38 307.906Z" fill="#02234b" fill-rule="nonzero" opacity="1" stroke="none"/>
<path d="M1669.28 344.546C1691.59 339.44 1713.81 353.418 1718.86 375.741C1723.92 398.065 1709.88 420.25 1687.55 425.25C1665.29 430.234 1643.19 416.26 1638.16 394.012C1633.12 371.763 1647.04 349.635 1669.28 344.546Z" fill="#f3a65b" fill-rule="nonzero" opacity="1" stroke="none"/>
<path d="M803.722 882.27C806.579 882.031 809.521 881.633 811.971 883.247C824.246 890.981 835.498 901.188 847.698 908.982C908.683 947.938 979.531 972.744 1048.84 992.433C1070.35 998.544 1096.15 1002.9 1118.24 1007.33C1134.48 1010.58 1150.79 1013.43 1167.17 1015.89C1175.48 1017.2 1216.59 1021.5 1224.18 1023.89C1224.46 1025.08 1226.23 1030.47 1220.61 1029.73C1220.29 1029.68 1223.4 1030.09 1219.61 1029.54C1215.82 1028.98 1215.78 1028.52 1211.51 1028.98C1206.3 1029.53 1203.92 1033.73 1203.54 1035.32C1166.97 1030.84 1123.75 1024.44 1087.16 1019.92C1081.23 1019.18 1074.57 1018.37 1068.8 1016.97C1059.04 1015.94 1052.03 1014.15 1041.38 1013.45C1028.2 979.471 1003.35 1005.36 998.723 1004.73C949.933 998.119 900.316 991.61 851.728 983.745C850.802 983.595 831.561 945.519 808.61 978.597C765.848 970.957 716.677 965.517 672.824 958.529C673.274 957.805 673.731 957.085 674.195 956.371C702.357 913.205 755.34 892.541 803.722 882.27Z" fill="#61a0a5" fill-rule="nonzero" opacity="1" stroke="none"/>
<path d="M1717.55 1146.5C1749.98 1173.41 1780.86 1202.14 1810.03 1232.55C1807.53 1236 1807.43 1235.79 1807.32 1239.92C1810.36 1246.42 1815.37 1246.34 1821.89 1246.16C1819.75 1249.47 1803.77 1249.38 1798.43 1250.16C1766.15 1254.91 1738.62 1265.51 1711.97 1283.82C1689 1279.13 1659.18 1281.12 1636 1282.05C1627.63 1275.98 1607.68 1256.88 1597.9 1248.52C1624.63 1214.57 1681 1169.5 1717.55 1146.5Z" fill="#61a0a5" fill-rule="nonzero" opacity="1" stroke="none"/>
<path d="M1656.33 617.255L1655.99 618.183C1652.58 627.616 1649.78 639.877 1646.8 649.779C1640.99 668.351 1634.88 686.824 1628.45 705.191C1609.9 758.196 1562.25 853.506 1525.68 896.482C1514.47 896.439 1504.99 896.298 1493.82 897.348C1502.59 884.728 1510.63 870.125 1518.7 856.936C1562.78 784.847 1591.76 710.792 1614.62 629.572C1618.36 630.905 1620.28 631.787 1623.94 629.884C1624.98 626.001 1624.72 626.631 1622.97 622.268C1633.54 621.242 1646.02 619.624 1656.33 617.255Z" fill="url(#LinearGradient)" fill-rule="nonzero" opacity="1" stroke="none"/>
<path d="M1628.34 1631.75C1627.03 1631.97 1625.84 1632.12 1623.19 1632.91C1617.22 1634.68 1611.06 1637.27 1604.75 1639.06C1575.48 1647.26 1545.85 1654.1 1515.94 1659.56C1507.45 1661.12 1497.94 1663.69 1489.53 1664.44C1489 1665.38 1488.54 1666.56 1488.06 1667.66C1488.28 1667.31 1488.57 1667 1488.94 1666.88C1489.36 1666.73 1489.82 1666.76 1490.25 1666.97C1491.11 1667.39 1491.48 1668.42 1491.06 1669.28C1488.97 1673.62 1487.97 1678.06 1486.69 1687C1486.65 1687.28 1486.6 1687.52 1486.53 1688.03C1485.58 1694.72 1485.08 1697.7 1484.09 1701.19C1483.04 1704.9 1482.17 1708.66 1481.25 1712.44C1481.61 1712.24 1482.03 1712.12 1482.47 1712.22C1483.4 1712.44 1483.97 1713.35 1483.75 1714.28C1482.5 1719.58 1481.41 1724.92 1479.97 1732.59C1479.73 1733.87 1479.58 1734.8 1479.12 1737.25C1478.78 1739.1 1478.57 1739.88 1478.25 1741.56C1478.51 1741.53 1478.77 1741.44 1479.03 1741.53C1479.3 1740.98 1479.58 1740.39 1479.84 1739.84C1480.03 1738.62 1480.33 1737.4 1480.78 1736.19C1483.51 1728.77 1488.92 1722.86 1496.5 1717.22C1501.23 1713.7 1507.02 1710.29 1513.47 1706.94C1513.99 1705.69 1514.59 1704.48 1515.31 1703.34C1517.07 1700.59 1519.24 1698.34 1521.81 1696.28C1525.09 1693.66 1529.11 1691.31 1534.03 1688.91C1540.68 1685.66 1548.04 1682.71 1557.81 1679.16C1564.82 1676.61 1572.17 1674.35 1580.81 1672C1581.32 1671.86 1582.17 1671.54 1585.41 1670.19C1586.07 1669.91 1586.6 1669.68 1587.12 1669.47C1592.36 1667.34 1596.13 1666.17 1600.66 1665.81C1601.6 1665.74 1602.5 1665.95 1603.44 1665.97C1604.13 1664.94 1604.99 1664.03 1606.16 1663.41C1610.12 1661.27 1613.91 1659.89 1618.41 1658.69C1618.76 1658.31 1619.12 1657.94 1619.47 1657.56L1619.25 1655.75C1617.54 1653.27 1617.4 1650.1 1618.84 1647.5C1618.63 1647.19 1618.37 1646.98 1618.19 1646.62C1617.64 1645.59 1617.28 1644.44 1617.19 1643.25C1616.97 1640.49 1618.01 1638.2 1619.62 1636.44C1620.48 1635.51 1621.41 1634.79 1622.5 1634.16C1623.84 1633.38 1625.37 1632.74 1627.16 1632.12C1627.54 1631.99 1627.95 1631.88 1628.34 1631.75ZM1485.09 1676.12C1483.18 1683.14 1481.83 1691.68 1480.69 1700.47C1480.71 1700.4 1480.73 1700.32 1480.75 1700.25C1481.68 1696.96 1482.16 1694.06 1483.09 1687.53C1483.17 1687.02 1483.21 1686.78 1483.25 1686.5C1483.87 1682.14 1484.43 1678.93 1485.09 1676.12Z" fill="#fefefe" fill-opacity="0.00784314" fill-rule="nonzero" opacity="1" stroke="none"/>
<path d="M651.162 889.636C662.299 888.277 678.879 889.059 690.378 889.464C660.511 909.267 648.399 922.269 631.095 953.122C594.668 947.893 558.039 943.279 521.537 938.577C486.076 934.008 490.185 977.789 488.919 1000.75C488.519 1007.92 488.261 1016.2 487.192 1023.2C484.148 1021.86 462.081 966.388 458.238 957.221C478.366 947.573 498.663 938.279 519.118 929.346C565.469 908.678 598.4 892.593 651.162 889.636Z" fill="#61a0a5" fill-rule="nonzero" opacity="1" stroke="none"/>
<path d="M925.967 50.3971C966.448 48.5645 1004.14 68.1958 1019.26 107.394C1022.83 116.643 1024.09 125.287 1025.6 135.063C1021.07 137.096 1012.92 139.161 1007.89 140.556C1003.99 118.908 1000.28 103.119 982.294 88.5007C965.776 74.9554 944.444 68.7413 923.236 71.297C901.82 73.761 886.964 82.3133 873.75 99.0085C848.317 131.958 854.033 166.78 880.555 196.507C874.197 200.611 868.862 203.93 862.252 207.586C849.17 194.189 840.668 175.698 838.239 157.193C834.841 132.249 841.638 106.987 857.095 87.1165C874.613 64.653 898.395 53.9854 925.967 50.3971Z" fill="#61a0a5" fill-opacity="0.988235" fill-rule="nonzero" opacity="1" stroke="none"/>
<path d="M432.637 1002.83C436.475 1004.72 475.102 1097.32 480.297 1108.09L477.693 1120.02C463.486 1112.55 448.821 1105.98 433.785 1100.36C430.075 1098.6 414.616 1093.67 410.059 1092.13C396.712 1067.35 384.526 1053.92 362.93 1035.44C384.533 1022.82 410.018 1013.97 432.637 1002.83Z" fill="#61a0a5" fill-rule="nonzero" opacity="1" stroke="none"/>
<path d="M1281.84 1466.41C1223.26 1469.9 1190.93 1475.78 1138.56 1505.06C1128.05 1510.94 1113.7 1517.93 1104.31 1525.28C1106.96 1532.12 1109.88 1536.95 1113.5 1543.31L1120.47 1538.59C1192.65 1496.21 1215.12 1485.51 1301.03 1483.88C1299.49 1477.85 1298.09 1472.52 1296.22 1466.59C1291.55 1466.53 1286.46 1466.35 1281.84 1466.41Z" fill="#61a0a5" fill-rule="nonzero" opacity="1" stroke="none"/>
<path d="M507.313 1356.57C509.748 1359.71 512.772 1366.5 515.174 1369.72C514.523 1370.88 515.174 1373.95 515.174 1373.95C515.174 1373.95 508.777 1378.92 507.313 1381.15C496.582 1367.42 481.37 1354.52 472.888 1345.1C462.766 1333.86 459.075 1330.44 444.643 1319.15C427.598 1305.81 408.382 1289.4 380.064 1273.23L374.113 1270.24C375.385 1265.36 376.257 1261.55 378.273 1257.15C386.81 1260.81 397.74 1265.26 406.131 1270.24C416.488 1276.4 425.7 1282.42 434.19 1288.59C459.961 1307.3 483.069 1327.36 507.313 1356.57Z" fill="#61a0a5" fill-rule="nonzero" opacity="1" stroke="none"/>
<path d="M450.644 1400.89C453.08 1404.03 465.831 1418.49 468.232 1421.71C467.581 1422.87 465.18 1428.67 465.18 1428.67C465.18 1428.67 461.441 1429.49 459.978 1431.72C445.925 1417.34 438.408 1409.38 429.68 1400.89C418.838 1390.34 424.945 1395.95 401.387 1375.43C377.83 1354.91 371.263 1351.73 342.944 1335.56L336.332 1330.62C337.604 1325.74 333.049 1323.54 335.065 1319.15C343.602 1322.81 359.796 1330.58 368.186 1335.56C378.543 1341.71 392.946 1351.5 401.435 1357.67C427.207 1376.39 421.613 1373.95 450.644 1400.89Z" fill="#61a0a5" fill-rule="nonzero" opacity="1" stroke="none"/>
<path d="M551.644 1307.91C554.079 1311.05 553.243 1314.61 555.644 1317.83C553.674 1321.35 551.768 1324.32 549.581 1327.65C537.633 1312.37 527.647 1300.31 518.357 1290.24C509.347 1280.47 500.992 1272.56 492.137 1265.38C475.327 1251.75 456.714 1240.74 428.395 1224.57L422.444 1221.58C423.716 1216.71 424.589 1212.89 426.604 1208.49C435.141 1212.15 446.071 1216.6 454.462 1221.58C464.819 1227.74 474.032 1233.76 482.521 1239.93C508.292 1258.65 527.4 1278.71 551.644 1307.91Z" fill="#61a0a5" fill-rule="nonzero" opacity="1" stroke="none"/>
<path d="M925.597 108.197C926.521 108.133 927.446 108.08 928.372 108.039C958.139 106.781 970.329 125.321 970.438 152.611C958.473 157.61 946.541 162.687 934.644 167.843C928.715 170.835 922.77 173.491 916.725 176.23C883.298 157.68 890.17 120.924 925.597 108.197Z" fill="#f3a65b" fill-opacity="0.988235" fill-rule="nonzero" opacity="1" stroke="none"/>
<path d="M1311.53 1530.42C1312.4 1530.45 1312.81 1530.98 1313.78 1531.62C1315.7 1537.27 1315.9 1542.52 1316.5 1548.47C1253.95 1552.42 1203.97 1561.42 1151.57 1598.22C1148.47 1600.39 1140.57 1606.29 1137.43 1605.77C1134.86 1600.23 1131.24 1593.74 1128.36 1588.24C1195.21 1548.9 1233.68 1534.82 1311.53 1530.42Z" fill="#61a0a5" fill-rule="nonzero" opacity="1" stroke="none"/>
<path d="M1315.26 1598.21C1318.04 1598.35 1316.84 1597.82 1319.07 1599.4C1319.84 1603 1318.03 1611.43 1317.4 1615.73C1275.94 1618.23 1235.52 1629.77 1198.99 1649.55C1193.73 1652.4 1171.8 1665.8 1168.55 1665.56C1165.42 1658.45 1163.72 1654.26 1159.47 1647.84C1186.54 1630.84 1236.67 1610.33 1267.67 1604.29C1282.77 1601.35 1299.02 1601.05 1313.96 1598.45L1315.26 1598.21Z" fill="#61a0a5" fill-rule="nonzero" opacity="1" stroke="none"/>
<g/>
<path d="M1182.97 1114.51C1186.54 1115.86 1188.52 1122.11 1191.38 1126.91C1217.42 1137.5 1209.25 1121.23 1219.75 1119.37C1221.55 1123.08 1220.11 1129.48 1219.09 1133.39C1209.97 1146.23 1205.12 1146.61 1190.45 1143.52C1181.27 1135.56 1174.98 1126.24 1182.97 1114.51Z" fill="#fefefe" fill-opacity="0.929412" fill-rule="nonzero" opacity="1" stroke="none"/>
<path d="M203.062 1098.59C198.718 1105.35 195.144 1113.31 191.656 1120.62C198.542 1116.32 205.107 1112.09 212.344 1108.38C218.382 1105.75 226.195 1102.09 232.25 1100C222.511 1099.59 212.796 1099.11 203.062 1098.59Z" fill="#61a0a5" fill-opacity="0.933333" fill-rule="nonzero" opacity="1" stroke="none"/>
<path d="M1810.03 1232.55C1814.31 1236.92 1818.7 1240.96 1821.89 1246.16C1815.37 1246.34 1810.36 1246.42 1807.32 1239.92C1807.43 1235.79 1807.53 1236 1810.03 1232.55Z" fill="#61a0a5" fill-opacity="0.913725" fill-rule="nonzero" opacity="1" stroke="none"/>
<path d="M1614.62 629.572C1614.86 627.923 1615.58 626.153 1616.12 624.535C1619.39 621.971 1618.24 622.759 1622.97 622.268C1624.72 626.631 1624.98 626.001 1623.94 629.884C1620.28 631.787 1618.36 630.905 1614.62 629.572Z" fill="#f3a65b" fill-opacity="0.905882" fill-rule="nonzero" opacity="1" stroke="none"/>
<path d="M581.5 1772.84C586.612 1776.62 589.19 1778.55 594.812 1781.59C597.512 1781.02 596.639 1781.47 598.719 1779.59L598.062 1776.25C591.884 1775.29 587.57 1774.33 581.5 1772.84Z" fill="#61a0a5" fill-opacity="0.952941" fill-rule="nonzero" opacity="1" stroke="none"/>
<path d="M1044.9 953.777C1042.06 953.912 1038.68 952.571 1036.52 950.652C1039.54 949.576 1048.58 951.053 1053.51 951.077C1050.65 951.724 1047.22 952.172 1044.9 953.777Z" fill="#041f44" fill-rule="nonzero" opacity="1" stroke="none"/>
<path d="M1118.09 94.9914C1155.6 97.377 1193.53 106.471 1231.01 111.105C1235.72 111.687 1278.16 120.532 1279.71 121.475L1280.49 124.862C1282.34 125.942 1284.18 127.049 1286 128.184L1286.01 129.029C1282.61 129.08 1275.58 128.426 1273.42 128.724C1267.11 129.594 1266.36 130.814 1259.48 131.026C1185.54 119.074 1135.64 120.041 1062.48 128.345C1061.03 119.131 1059.22 111.164 1057.15 102.108C1058.09 99.6653 1058.24 99.0745 1059.64 96.8973C1068.02 98.2122 1078.5 95.8906 1087.38 95.6381C1097.03 95.3637 1107.51 95.8706 1116.96 95.0929L1118.09 94.9914Z" fill="url(#LinearGradient_2)" fill-rule="nonzero" opacity="0" stroke="none"/>
<path d="M1490.56 203.663C1497.32 206.519 1507.17 212.685 1513.92 216.436C1533.86 227.522 1553.31 239.396 1572.34 251.992C1581.57 258.104 1590.55 262.415 1599.12 269.655C1602.44 269.865 1602.28 269.165 1603.75 270.696C1595.91 275.634 1583.4 287.29 1576.81 293.751C1541.77 260.239 1509.94 233.501 1467.75 208.598C1472.49 208.15 1472.83 206.662 1477.86 207.822C1482.09 208.795 1486 209.666 1489.82 207.559L1490.56 203.663Z" fill="url(#LinearGradient_3)" fill-rule="nonzero" opacity="0" stroke="none"/>
<path d="M1279.71 121.475C1304.08 127.845 1327.42 133.256 1351.3 141.702C1382.61 152.779 1413.52 165.756 1443.61 179.811C1452.25 183.85 1476.07 194.303 1482.99 199.261C1480.1 199.229 1480.28 199.1 1477.54 199.625C1468.09 201.439 1462.51 198.153 1450.71 198.732C1377.38 160.641 1338.86 147 1259.48 131.026C1266.36 130.814 1267.11 129.594 1273.42 128.724C1275.58 128.426 1282.61 129.08 1286.01 129.029L1286 128.184C1284.18 127.049 1282.34 125.942 1280.49 124.862L1279.71 121.475Z" fill="#f3a65b" fill-opacity="0.968627" fill-rule="nonzero" opacity="0" stroke="none"/>
<path d="M1850.91 1544.84C1861.77 1539.48 1875.17 1530.18 1884.74 1526.13C1878.74 1533.92 1879.06 1543.95 1869.62 1558.07C1869.74 1554.66 1870.37 1550.59 1868.68 1547.89C1866.42 1546.6 1855.9 1546.12 1850.91 1544.84Z" fill="#f3a65b" fill-opacity="0.968627" fill-rule="nonzero" opacity="0" stroke="none"/>
<path d="M1057.15 102.108C1055.59 97.5016 1052.49 91.5462 1052.18 87.0644C1053.4 87.8622 1057.35 90.4019 1058.53 90.5602C1078.08 93.1887 1098.58 91.0582 1118.09 94.9914L1116.96 95.0929C1107.51 95.8706 1097.03 95.3637 1087.38 95.6381C1078.5 95.8906 1068.02 98.2122 1059.64 96.8973C1058.24 99.0745 1058.09 99.6653 1057.15 102.108Z" fill="#f3a65b" fill-opacity="0.968627" fill-rule="nonzero" opacity="0" stroke="none"/>
<path d="M1450.71 198.732C1462.51 198.153 1468.09 201.439 1477.54 199.625C1480.28 199.1 1480.1 199.229 1482.99 199.261C1486.88 200.75 1487.2 201.089 1490.56 203.663L1489.82 207.559C1486 209.666 1482.09 208.795 1477.86 207.822C1472.83 206.662 1472.49 208.15 1467.75 208.598C1462.34 205.267 1456.25 201.925 1450.71 198.732Z" fill="url(#LinearGradient_4)" fill-rule="nonzero" opacity="0" stroke="none"/>
<g opacity="1">
<path d="M894.658 410.226C881.378 398.868 851.09 416.645 846.818 431.628" fill="#f3a65b" fill-rule="nonzero" stroke="none"/>
<path d="M886.275 403.547C884.375 403.557 882.426 403.788 880.43 404.183C869.95 406.255 859.745 413.04 852.727 420.967C849.863 424.201 847.335 427.543 846.011 431.705C846.039 431.995 846.422 432.194 846.867 432.152C847.312 432.109 847.652 431.84 847.624 431.551C850.53 422.39 859.414 416.129 867.908 412.548C870.479 411.464 873.142 410.615 875.896 410.149C881.285 409.236 886.898 409.437 891.242 413.122C892.281 414.349 894.653 414.047 896.54 412.447C898.428 410.847 899.115 408.556 898.075 407.329C894.397 404.575 890.455 403.525 886.275 403.547Z" fill="#f3a65b" stroke="none"/>
</g>
<g opacity="1">
<path d="M891.749 417.665C884.734 402.803 852.987 422.05 861.045 434.897C863.409 438.667 869.274 439.114 873.061 438.324C880.076 436.861 889.528 433.241 892.846 426.247C896.46 418.629 886.437 416.106 881.243 418.607" fill="#f3a65b" fill-rule="nonzero" stroke="none"/>
<path d="M884.055 408.974C883.353 408.98 882.638 409.026 881.915 409.108C875.695 409.814 869.985 412.858 865.233 416.817C863.587 418.188 862.059 419.674 860.768 421.389C857.921 425.175 855.836 430.339 858.05 434.924C860.289 439.563 865.786 440.635 870.485 440.143C872.944 439.886 875.379 439.126 877.706 438.313C884.026 436.103 890.539 432.516 893.609 426.277C893.982 425.518 894.259 424.692 894.383 423.855C894.6 422.389 894.233 421.107 893.484 420.066C895.481 418.813 896.476 416.792 895.71 415.434C893.303 410.805 888.974 408.931 884.055 408.974ZM880.781 415.592C882.501 415.595 884.126 415.998 885.476 416.994C883.977 417.075 882.49 417.422 881.111 418.011C880.897 418.058 880.783 418.364 880.856 418.693C880.929 419.022 881.162 419.25 881.376 419.203C882.828 418.577 884.96 418.312 886.992 418.547C887.282 418.95 887.551 419.395 887.79 419.897C888.433 421.039 890.122 421.361 891.895 420.806C892.52 421.592 892.862 422.593 892.765 423.844C892.712 424.516 892.527 425.173 892.27 425.795C889.849 431.658 882.484 434.707 876.76 436.165C875.353 436.523 873.905 436.871 872.458 437.015C869.392 437.32 865.328 436.72 863.49 433.922C861.295 430.582 862.663 426.521 865.037 423.677C865.964 422.566 867.025 421.542 868.132 420.613C869.068 419.827 870.086 419.15 871.151 418.553C873.892 417.019 877.51 415.585 880.781 415.592Z" fill="#f3a65b" stroke="none"/>
</g>
<g opacity="1">
<path d="M865.122 526.229C855.673 509.24 830.733 533.345 839.906 545.617C857.284 568.863 892.41 528.723 860.961 525.633" fill="#f3a65b" fill-rule="nonzero" stroke="none"/>
<path d="M858.146 517.052C857.078 517.02 855.96 517.111 854.793 517.327C853.082 517.645 851.419 518.21 849.844 518.946C844.456 521.465 840.19 525.901 837.339 531.069C834.804 535.663 833.839 541.745 836.956 546.318C837.988 547.832 839.351 549.19 840.771 550.342C849.862 557.715 862.272 554.082 869.529 545.872C870.947 544.268 872.184 542.475 873.054 540.513C873.671 539.122 874.168 537.642 874.345 536.125C874.448 535.248 874.446 534.356 874.305 533.482C873.769 530.154 871.504 528.092 868.709 526.807C869.353 525.791 869.515 524.709 869.027 523.892C866.458 519.608 862.775 517.19 858.146 517.052ZM854.256 523.72C855.897 523.669 857.526 524.197 859.004 525.578C859.923 526.435 860.611 527.474 861.218 528.566C862.057 529.967 864.484 530.057 866.64 528.767C866.992 528.557 867.311 528.32 867.601 528.07C868.473 528.481 869.306 528.982 870.041 529.607C874.537 533.438 872.736 539.317 869.55 543.344C864.659 549.524 855.459 553.794 848.001 549.635C844.896 547.903 841.738 544.661 840.987 541.099C840.135 537.06 842.152 532.582 844.681 529.514C846.969 526.739 850.644 523.831 854.256 523.72Z" fill="#f3a65b" stroke="none"/>
</g>
<g opacity="1">
<path d="M819.87 422.118C805.652 423.509 786.283 433.989 776.78 445.491C759.11 466.864 751.917 496.939 754.09 524.759C756.597 556.735 789.385 590.017 823.565 569.937C856.208 551.409 873.569 507.592 870.522 471.125C869.294 456.481 860.025 440.62 848.403 430.943C840.457 424.049 828.4 421.284 819.87 422.118Z" fill="#ffffff" fill-rule="nonzero" opacity="1" stroke="none"/>
<path d="M817.396 406.62C858.432 407.145 881.635 434.486 887.601 473.514C889.894 489.327 889.11 505.262 885.465 520.499C881.453 537.269 873.973 553.194 863.31 567.179C845.712 590.658 827.445 601.761 798.892 605.938C784.448 606.055 769.67 601.946 758.179 593.017C698.606 546.73 730.797 433.579 797.473 410.665C804.334 408.307 810.227 407.466 817.396 406.62ZM831.941 446.302C822.836 441.878 814.739 442.42 805.985 447.143C797.415 449.862 781.928 462.903 778.71 471.368C768.025 487.216 763.485 504.767 763.596 520.567C763.901 564.038 799.414 594.258 839.038 539.305C856.425 515.192 861.083 464.452 831.941 446.302Z" fill="#02234b" fill-rule="nonzero" opacity="1" stroke="none"/>
</g>
<path d="M805.017 1061.73C807.865 1065.83 809.845 1073.61 812.304 1076.99C818.458 1085.45 829.061 1081.8 834.455 1075.39C836.862 1072.53 838.786 1064.5 839.481 1060.85C839.483 1060.83 839.763 1059.53 839.938 1059.48C844.77 1057.99 843.498 1076.32 842.484 1078.73C836.852 1092.11 814.013 1096.94 805.801 1083.04C803.127 1078.51 800.662 1055.45 805.017 1061.73Z" fill="#ffffff" fill-rule="nonzero" opacity="1" stroke="none"/>
</g>
<g id="Layer-2">
<path d="M1153.55 264.228C1141.62 251.56 1080.47 258.727 1087.22 283.265C1089.5 291.541 1097.15 304.318 1104.42 309.003C1117.82 317.638 1163.79 322.718 1176.24 311.555C1189.75 299.449 1170.74 275.477 1156.39 274.454" fill="#61a0a5" fill-rule="nonzero" opacity="1" stroke="none"/>
<path d="M1177.22 300.758C1167.61 296.996 1149.84 323.148 1164.09 328.301C1178.13 333.378 1195.48 305.896 1185.69 303.24" fill="#61a0a5" fill-rule="nonzero" opacity="1" stroke="none"/>
<path d="M1212.94 192.297C1202.04 177.212 1159.2 189.817 1147.06 197.674C1138.99 202.892 1127.43 214.32 1131.96 228.629C1135.97 241.278 1150.67 248.685 1159.23 253.904C1181.37 267.411 1225.36 284.623 1247.37 261.818C1263.19 245.434 1238.95 209.918 1225.64 205.567" fill="#61a0a5" fill-rule="nonzero" opacity="1" stroke="none"/>
</g>
</svg>
